<svg xmlns="http://www.w3.org/2000/svg" xmlns:xlink="http://www.w3.org/1999/xlink" width="500" zoomAndPan="magnify" viewBox="0 0 375 374.999991" height="500" preserveAspectRatio="xMidYMid meet" version="1.0"><defs><g/><clipPath id="f52c4aa09a"><path d="M 4 118.078125 L 98 118.078125 L 98 228 L 4 228 Z M 4 118.078125 " clip-rule="nonzero"/></clipPath><clipPath id="0d5ac21699"><path d="M 4 148 L 101.0625 148 L 101.0625 256.828125 L 4 256.828125 Z M 4 148 " clip-rule="nonzero"/></clipPath></defs><g clip-path="url(#f52c4aa09a)"><path fill="#000000" d="M 4.308594 167.402344 C 4.269531 167.011719 4.203125 166.621094 4.203125 166.226562 C 4.199219 150.65625 4.207031 135.085938 4.175781 119.515625 C 4.171875 118.441406 4.535156 118.171875 5.5625 118.171875 C 22.722656 118.195312 39.882812 118.199219 57.042969 118.183594 C 66 118.175781 74.125 120.746094 81.308594 126.058594 C 87.25 130.453125 91.65625 136.082031 94.554688 142.894531 C 97.316406 149.386719 98.238281 156.15625 97.4375 163.085938 C 96.277344 173.136719 91.851562 181.636719 84.320312 188.460938 C 80.035156 192.339844 75.140625 195.207031 69.574219 196.875 C 68.253906 197.273438 66.898438 197.566406 65.5625 197.933594 C 65.144531 198.046875 64.746094 198.230469 63.988281 198.511719 C 65.667969 200.109375 67.183594 201.5 68.640625 202.953125 C 73.992188 208.261719 79.308594 213.613281 84.6875 218.894531 C 85.453125 219.644531 85.472656 220.164062 84.875 220.960938 C 83.078125 223.347656 81.113281 225.554688 78.792969 227.464844 C 77.976562 228.136719 77.480469 228.023438 76.789062 227.328125 C 65.660156 216.207031 54.511719 205.101562 43.367188 193.996094 C 41.527344 192.164062 39.703125 190.324219 37.855469 188.5 C 37.59375 188.246094 37.25 188.070312 36.945312 187.855469 C 37.019531 187.722656 37.09375 187.59375 37.167969 187.464844 C 37.589844 187.4375 38.011719 187.386719 38.4375 187.386719 C 44.375 187.378906 50.316406 187.320312 56.257812 187.394531 C 62.476562 187.46875 68.191406 185.914062 73.347656 182.453125 C 78.945312 178.695312 82.8125 173.582031 84.875 167.195312 C 86.371094 162.578125 86.566406 157.839844 85.65625 153.058594 C 84.320312 146.003906 80.746094 140.296875 75.148438 135.84375 C 71.605469 133.027344 67.628906 131.03125 63.128906 130.285156 C 60.949219 129.921875 58.722656 129.65625 56.519531 129.644531 C 43.390625 129.585938 30.257812 129.613281 17.125 129.613281 C 15.742188 129.613281 15.710938 129.640625 15.710938 130.992188 C 15.710938 138.5 15.722656 146.007812 15.6875 153.515625 C 15.683594 154.046875 15.503906 154.746094 15.144531 155.082031 C 11.125 158.777344 7.609375 162.890625 4.308594 167.402344 Z M 4.308594 167.402344 " fill-opacity="1" fill-rule="nonzero"/></g><g clip-path="url(#0d5ac21699)"><path fill="#000000" d="M 101.070312 235.25 L 90.707031 245.363281 L 90.699219 245.367188 C 86.171875 248.8125 81.167969 251.417969 75.765625 253.292969 C 68.203125 255.914062 60.378906 256.742188 52.472656 255.867188 C 39.28125 254.417969 28.03125 248.859375 18.867188 239.230469 C 13.792969 233.902344 9.988281 227.765625 7.476562 220.871094 C 4.746094 213.367188 3.5625 205.605469 4.394531 197.640625 C 6.261719 179.847656 14.808594 166.085938 29.917969 156.4375 C 34.214844 153.695312 38.914062 151.761719 43.871094 150.429688 C 49.308594 148.964844 54.816406 148.269531 60.4375 148.503906 C 64.890625 148.6875 69.246094 149.484375 73.550781 150.628906 C 74.949219 151.003906 75.140625 152.15625 75.453125 153.230469 C 76.417969 156.585938 76.539062 159.957031 75.480469 163.464844 C 73.867188 162.914062 72.371094 162.253906 70.808594 161.894531 C 67.675781 161.175781 64.53125 160.398438 61.347656 160.050781 C 56.976562 159.570312 52.585938 159.988281 48.328125 161.078125 C 38.308594 163.632812 30.125 168.976562 23.945312 177.308594 C 21.03125 181.230469 18.839844 185.511719 17.453125 190.179688 C 15.703125 196.089844 15.242188 202.101562 16.125 208.226562 C 17.632812 218.761719 22.511719 227.460938 30.496094 234.429688 C 34.671875 238.082031 39.457031 240.71875 44.753906 242.519531 C 50.757812 244.566406 56.894531 245.074219 63.125 244.4375 C 68.90625 243.851562 74.332031 242.003906 79.371094 239.085938 C 84.289062 236.242188 88.492188 232.585938 91.949219 228.089844 C 92.71875 227.09375 92.863281 227.078125 93.695312 227.90625 C 96.15625 230.355469 98.613281 232.804688 101.070312 235.25 Z M 101.070312 235.25 " fill-opacity="1" fill-rule="nonzero"/></g><g fill="#000000" fill-opacity="1"><g transform="translate(100.749, 176.575066)"><g><path d="M 2.265625 -31.09375 L 13.375 -31.09375 C 16.363281 -31.09375 18.800781 -30.296875 20.6875 -28.703125 C 22.570312 -27.109375 23.515625 -24.828125 23.515625 -21.859375 C 23.515625 -19.566406 22.941406 -17.648438 21.796875 -16.109375 C 20.660156 -14.566406 19.109375 -13.476562 17.140625 -12.84375 L 27.84375 0 L 18.84375 0 L 9.34375 -12.28125 L 9.34375 0 L 2.265625 0 Z M 9.34375 -17.296875 L 10.171875 -17.296875 C 10.828125 -17.296875 11.378906 -17.304688 11.828125 -17.328125 C 12.285156 -17.359375 12.800781 -17.445312 13.375 -17.59375 C 13.957031 -17.75 14.421875 -17.960938 14.765625 -18.234375 C 15.117188 -18.515625 15.421875 -18.914062 15.671875 -19.4375 C 15.929688 -19.96875 16.0625 -20.609375 16.0625 -21.359375 C 16.0625 -22.117188 15.929688 -22.757812 15.671875 -23.28125 C 15.421875 -23.8125 15.117188 -24.210938 14.765625 -24.484375 C 14.421875 -24.765625 13.957031 -24.976562 13.375 -25.125 C 12.800781 -25.28125 12.285156 -25.367188 11.828125 -25.390625 C 11.378906 -25.421875 10.828125 -25.4375 10.171875 -25.4375 L 9.34375 -25.4375 Z M 9.34375 -17.296875 "/></g></g></g><g fill="#000000" fill-opacity="1"><g transform="translate(128.561939, 176.575066)"><g><path d="M 20.046875 -31.09375 L 20.046875 -24.875 L 9.34375 -24.875 L 9.34375 -18.6875 L 19.59375 -18.6875 L 19.59375 -12.46875 L 9.34375 -12.46875 L 9.34375 -6.21875 L 20.046875 -6.21875 L 20.046875 0 L 2.265625 0 L 2.265625 -31.09375 Z M 20.046875 -31.09375 "/></g></g></g><g fill="#000000" fill-opacity="1"><g transform="translate(151.249502, 176.575066)"><g><path d="M 20.234375 -31.09375 L 20.234375 -24.875 L 9.34375 -24.875 L 9.34375 -18.6875 L 19.40625 -18.6875 L 19.40625 -12.46875 L 9.34375 -12.46875 L 9.34375 0 L 2.265625 0 L 2.265625 -31.09375 Z M 20.234375 -31.09375 "/></g></g></g><g fill="#000000" fill-opacity="1"><g transform="translate(173.447143, 176.575066)"><g><path d="M 2.265625 -31.09375 L 13.375 -31.09375 C 16.363281 -31.09375 18.800781 -30.296875 20.6875 -28.703125 C 22.570312 -27.109375 23.515625 -24.828125 23.515625 -21.859375 C 23.515625 -19.566406 22.941406 -17.648438 21.796875 -16.109375 C 20.660156 -14.566406 19.109375 -13.476562 17.140625 -12.84375 L 27.84375 0 L 18.84375 0 L 9.34375 -12.28125 L 9.34375 0 L 2.265625 0 Z M 9.34375 -17.296875 L 10.171875 -17.296875 C 10.828125 -17.296875 11.378906 -17.304688 11.828125 -17.328125 C 12.285156 -17.359375 12.800781 -17.445312 13.375 -17.59375 C 13.957031 -17.75 14.421875 -17.960938 14.765625 -18.234375 C 15.117188 -18.515625 15.421875 -18.914062 15.671875 -19.4375 C 15.929688 -19.96875 16.0625 -20.609375 16.0625 -21.359375 C 16.0625 -22.117188 15.929688 -22.757812 15.671875 -23.28125 C 15.421875 -23.8125 15.117188 -24.210938 14.765625 -24.484375 C 14.421875 -24.765625 13.957031 -24.976562 13.375 -25.125 C 12.800781 -25.28125 12.285156 -25.367188 11.828125 -25.390625 C 11.378906 -25.421875 10.828125 -25.4375 10.171875 -25.4375 L 9.34375 -25.4375 Z M 9.34375 -17.296875 "/></g></g></g><g fill="#000000" fill-opacity="1"><g transform="translate(201.260079, 176.575066)"><g><path d="M 18.046875 -31.09375 L 30.609375 0 L 22.984375 0 L 20.6875 -6.21875 L 8.859375 -6.21875 L 6.5625 0 L -1.0625 0 L 11.5 -31.09375 Z M 18.28125 -12.4375 L 14.8125 -21.484375 L 14.734375 -21.484375 L 11.265625 -12.4375 Z M 18.28125 -12.4375 "/></g></g></g><g fill="#000000" fill-opacity="1"><g transform="translate(231.635702, 176.575066)"><g><path d="M 9.34375 -19.296875 L 9.34375 0 L 2.265625 0 L 2.265625 -31.09375 L 9.34375 -31.09375 L 21.703125 -11.796875 L 21.78125 -11.796875 L 21.78125 -31.09375 L 28.875 -31.09375 L 28.875 0 L 21.78125 0 L 9.421875 -19.296875 Z M 9.34375 -19.296875 "/></g></g></g><g fill="#000000" fill-opacity="1"><g transform="translate(263.594173, 176.575066)"><g><path d="M 18.8125 -6.40625 C 19.882812 -6.40625 20.929688 -6.566406 21.953125 -6.890625 C 22.972656 -7.222656 23.722656 -7.539062 24.203125 -7.84375 L 24.90625 -8.328125 L 27.921875 -2.296875 C 27.828125 -2.222656 27.691406 -2.125 27.515625 -2 C 27.335938 -1.875 26.925781 -1.640625 26.28125 -1.296875 C 25.644531 -0.960938 24.960938 -0.664062 24.234375 -0.40625 C 23.503906 -0.15625 22.546875 0.0664062 21.359375 0.265625 C 20.179688 0.460938 18.96875 0.5625 17.71875 0.5625 C 14.820312 0.5625 12.078125 -0.144531 9.484375 -1.5625 C 6.898438 -2.976562 4.816406 -4.929688 3.234375 -7.421875 C 1.648438 -9.910156 0.859375 -12.597656 0.859375 -15.484375 C 0.859375 -17.671875 1.320312 -19.769531 2.25 -21.78125 C 3.1875 -23.789062 4.425781 -25.507812 5.96875 -26.9375 C 7.519531 -28.375 9.320312 -29.519531 11.375 -30.375 C 13.4375 -31.226562 15.550781 -31.65625 17.71875 -31.65625 C 19.726562 -31.65625 21.578125 -31.414062 23.265625 -30.9375 C 24.960938 -30.457031 26.164062 -29.984375 26.875 -29.515625 L 27.921875 -28.796875 L 24.90625 -22.765625 C 24.726562 -22.910156 24.460938 -23.085938 24.109375 -23.296875 C 23.765625 -23.515625 23.0625 -23.800781 22 -24.15625 C 20.945312 -24.507812 19.882812 -24.6875 18.8125 -24.6875 C 17.101562 -24.6875 15.566406 -24.410156 14.203125 -23.859375 C 12.847656 -23.304688 11.773438 -22.578125 10.984375 -21.671875 C 10.191406 -20.765625 9.585938 -19.789062 9.171875 -18.75 C 8.765625 -17.707031 8.5625 -16.644531 8.5625 -15.5625 C 8.5625 -13.195312 9.445312 -11.078125 11.21875 -9.203125 C 12.988281 -7.335938 15.519531 -6.40625 18.8125 -6.40625 Z M 18.8125 -6.40625 "/></g></g></g><g fill="#000000" fill-opacity="1"><g transform="translate(292.8015, 176.575066)"><g><path d="M 9.34375 -31.09375 L 9.34375 0 L 2.265625 0 L 2.265625 -31.09375 Z M 9.34375 -31.09375 "/></g></g></g><g fill="#000000" fill-opacity="1"><g transform="translate(305.238311, 176.575066)"><g><path d="M 13.71875 -31.65625 C 15.40625 -31.65625 17.050781 -31.410156 18.65625 -30.921875 C 20.257812 -30.429688 21.453125 -29.945312 22.234375 -29.46875 L 23.359375 -28.71875 L 20.5 -23.0625 C 20.269531 -23.21875 19.953125 -23.410156 19.546875 -23.640625 C 19.148438 -23.878906 18.398438 -24.203125 17.296875 -24.609375 C 16.191406 -25.015625 15.160156 -25.21875 14.203125 -25.21875 C 13.023438 -25.21875 12.113281 -24.960938 11.46875 -24.453125 C 10.832031 -23.953125 10.515625 -23.273438 10.515625 -22.421875 C 10.515625 -21.992188 10.664062 -21.597656 10.96875 -21.234375 C 11.269531 -20.867188 11.785156 -20.476562 12.515625 -20.0625 C 13.242188 -19.65625 13.882812 -19.320312 14.4375 -19.0625 C 14.988281 -18.8125 15.84375 -18.4375 17 -17.9375 C 19.007812 -17.082031 20.722656 -15.921875 22.140625 -14.453125 C 23.554688 -12.984375 24.265625 -11.316406 24.265625 -9.453125 C 24.265625 -7.671875 23.941406 -6.113281 23.296875 -4.78125 C 22.660156 -3.445312 21.785156 -2.40625 20.671875 -1.65625 C 19.554688 -0.90625 18.316406 -0.347656 16.953125 0.015625 C 15.597656 0.378906 14.128906 0.5625 12.546875 0.5625 C 11.191406 0.5625 9.859375 0.421875 8.546875 0.140625 C 7.242188 -0.128906 6.148438 -0.46875 5.265625 -0.875 C 4.390625 -1.289062 3.597656 -1.703125 2.890625 -2.109375 C 2.191406 -2.515625 1.679688 -2.851562 1.359375 -3.125 L 0.859375 -3.546875 L 4.40625 -9.5 C 4.707031 -9.25 5.117188 -8.925781 5.640625 -8.53125 C 6.171875 -8.144531 7.109375 -7.625 8.453125 -6.96875 C 9.804688 -6.320312 10.992188 -6 12.015625 -6 C 15.003906 -6 16.5 -7.015625 16.5 -9.046875 C 16.5 -9.472656 16.390625 -9.867188 16.171875 -10.234375 C 15.960938 -10.597656 15.585938 -10.960938 15.046875 -11.328125 C 14.515625 -11.691406 14.039062 -11.976562 13.625 -12.1875 C 13.207031 -12.40625 12.523438 -12.734375 11.578125 -13.171875 C 10.640625 -13.609375 9.945312 -13.941406 9.5 -14.171875 C 7.613281 -15.097656 6.15625 -16.257812 5.125 -17.65625 C 4.09375 -19.050781 3.578125 -20.550781 3.578125 -22.15625 C 3.578125 -24.945312 4.609375 -27.226562 6.671875 -29 C 8.734375 -30.769531 11.082031 -31.65625 13.71875 -31.65625 Z M 13.71875 -31.65625 "/></g></g></g><g fill="#000000" fill-opacity="1"><g transform="translate(331.393043, 176.575066)"><g><path d="M 0.859375 -15.5625 C 0.859375 -20.0625 2.390625 -23.867188 5.453125 -26.984375 C 8.523438 -30.097656 12.222656 -31.65625 16.546875 -31.65625 C 20.890625 -31.65625 24.582031 -30.101562 27.625 -27 C 30.664062 -23.894531 32.1875 -20.082031 32.1875 -15.5625 C 32.1875 -11.019531 30.691406 -7.195312 27.703125 -4.09375 C 24.710938 -0.988281 20.992188 0.5625 16.546875 0.5625 C 11.992188 0.5625 8.238281 -0.972656 5.28125 -4.046875 C 2.332031 -7.128906 0.859375 -10.96875 0.859375 -15.5625 Z M 8.515625 -15.5625 C 8.515625 -13.925781 8.765625 -12.4375 9.265625 -11.09375 C 9.773438 -9.75 10.65625 -8.613281 11.90625 -7.6875 C 13.164062 -6.757812 14.710938 -6.296875 16.546875 -6.296875 C 19.179688 -6.296875 21.171875 -7.195312 22.515625 -9 C 23.859375 -10.8125 24.53125 -13 24.53125 -15.5625 C 24.53125 -18.101562 23.84375 -20.285156 22.46875 -22.109375 C 21.101562 -23.929688 19.128906 -24.84375 16.546875 -24.84375 C 13.984375 -24.84375 12.003906 -23.929688 10.609375 -22.109375 C 9.210938 -20.285156 8.515625 -18.101562 8.515625 -15.5625 Z M 8.515625 -15.5625 "/></g></g></g><g fill="#000000" fill-opacity="1"><g transform="translate(100.749, 215.823927)"><g><path d="M 18.8125 -6.40625 C 19.882812 -6.40625 20.929688 -6.566406 21.953125 -6.890625 C 22.972656 -7.222656 23.722656 -7.539062 24.203125 -7.84375 L 24.90625 -8.328125 L 27.921875 -2.296875 C 27.828125 -2.222656 27.691406 -2.125 27.515625 -2 C 27.335938 -1.875 26.925781 -1.640625 26.28125 -1.296875 C 25.644531 -0.960938 24.960938 -0.664062 24.234375 -0.40625 C 23.503906 -0.15625 22.546875 0.0664062 21.359375 0.265625 C 20.179688 0.460938 18.96875 0.5625 17.71875 0.5625 C 14.820312 0.5625 12.078125 -0.144531 9.484375 -1.5625 C 6.898438 -2.976562 4.816406 -4.929688 3.234375 -7.421875 C 1.648438 -9.910156 0.859375 -12.597656 0.859375 -15.484375 C 0.859375 -17.671875 1.320312 -19.769531 2.25 -21.78125 C 3.1875 -23.789062 4.425781 -25.507812 5.96875 -26.9375 C 7.519531 -28.375 9.320312 -29.519531 11.375 -30.375 C 13.4375 -31.226562 15.550781 -31.65625 17.71875 -31.65625 C 19.726562 -31.65625 21.578125 -31.414062 23.265625 -30.9375 C 24.960938 -30.457031 26.164062 -29.984375 26.875 -29.515625 L 27.921875 -28.796875 L 24.90625 -22.765625 C 24.726562 -22.910156 24.460938 -23.085938 24.109375 -23.296875 C 23.765625 -23.515625 23.0625 -23.800781 22 -24.15625 C 20.945312 -24.507812 19.882812 -24.6875 18.8125 -24.6875 C 17.101562 -24.6875 15.566406 -24.410156 14.203125 -23.859375 C 12.847656 -23.304688 11.773438 -22.578125 10.984375 -21.671875 C 10.191406 -20.765625 9.585938 -19.789062 9.171875 -18.75 C 8.765625 -17.707031 8.5625 -16.644531 8.5625 -15.5625 C 8.5625 -13.195312 9.445312 -11.078125 11.21875 -9.203125 C 12.988281 -7.335938 15.519531 -6.40625 18.8125 -6.40625 Z M 18.8125 -6.40625 "/></g></g></g><g fill="#000000" fill-opacity="1"><g transform="translate(129.503955, 215.823927)"><g><path d="M 0.859375 -15.5625 C 0.859375 -20.0625 2.390625 -23.867188 5.453125 -26.984375 C 8.523438 -30.097656 12.222656 -31.65625 16.546875 -31.65625 C 20.890625 -31.65625 24.582031 -30.101562 27.625 -27 C 30.664062 -23.894531 32.1875 -20.082031 32.1875 -15.5625 C 32.1875 -11.019531 30.691406 -7.195312 27.703125 -4.09375 C 24.710938 -0.988281 20.992188 0.5625 16.546875 0.5625 C 11.992188 0.5625 8.238281 -0.972656 5.28125 -4.046875 C 2.332031 -7.128906 0.859375 -10.96875 0.859375 -15.5625 Z M 8.515625 -15.5625 C 8.515625 -13.925781 8.765625 -12.4375 9.265625 -11.09375 C 9.773438 -9.75 10.65625 -8.613281 11.90625 -7.6875 C 13.164062 -6.757812 14.710938 -6.296875 16.546875 -6.296875 C 19.179688 -6.296875 21.171875 -7.195312 22.515625 -9 C 23.859375 -10.8125 24.53125 -13 24.53125 -15.5625 C 24.53125 -18.101562 23.84375 -20.285156 22.46875 -22.109375 C 21.101562 -23.929688 19.128906 -24.84375 16.546875 -24.84375 C 13.984375 -24.84375 12.003906 -23.929688 10.609375 -22.109375 C 9.210938 -20.285156 8.515625 -18.101562 8.515625 -15.5625 Z M 8.515625 -15.5625 "/></g></g></g><g fill="#000000" fill-opacity="1"><g transform="translate(162.93206, 215.823927)"><g><path d="M 9.34375 -19.296875 L 9.34375 0 L 2.265625 0 L 2.265625 -31.09375 L 9.34375 -31.09375 L 21.703125 -11.796875 L 21.78125 -11.796875 L 21.78125 -31.09375 L 28.875 -31.09375 L 28.875 0 L 21.78125 0 L 9.421875 -19.296875 Z M 9.34375 -19.296875 "/></g></g></g><g fill="#000000" fill-opacity="1"><g transform="translate(194.438151, 215.823927)"><g><path d="M 13.71875 -31.65625 C 15.40625 -31.65625 17.050781 -31.410156 18.65625 -30.921875 C 20.257812 -30.429688 21.453125 -29.945312 22.234375 -29.46875 L 23.359375 -28.71875 L 20.5 -23.0625 C 20.269531 -23.21875 19.953125 -23.410156 19.546875 -23.640625 C 19.148438 -23.878906 18.398438 -24.203125 17.296875 -24.609375 C 16.191406 -25.015625 15.160156 -25.21875 14.203125 -25.21875 C 13.023438 -25.21875 12.113281 -24.960938 11.46875 -24.453125 C 10.832031 -23.953125 10.515625 -23.273438 10.515625 -22.421875 C 10.515625 -21.992188 10.664062 -21.597656 10.96875 -21.234375 C 11.269531 -20.867188 11.785156 -20.476562 12.515625 -20.0625 C 13.242188 -19.65625 13.882812 -19.320312 14.4375 -19.0625 C 14.988281 -18.8125 15.84375 -18.4375 17 -17.9375 C 19.007812 -17.082031 20.722656 -15.921875 22.140625 -14.453125 C 23.554688 -12.984375 24.265625 -11.316406 24.265625 -9.453125 C 24.265625 -7.671875 23.941406 -6.113281 23.296875 -4.78125 C 22.660156 -3.445312 21.785156 -2.40625 20.671875 -1.65625 C 19.554688 -0.90625 18.316406 -0.347656 16.953125 0.015625 C 15.597656 0.378906 14.128906 0.5625 12.546875 0.5625 C 11.191406 0.5625 9.859375 0.421875 8.546875 0.140625 C 7.242188 -0.128906 6.148438 -0.46875 5.265625 -0.875 C 4.390625 -1.289062 3.597656 -1.703125 2.890625 -2.109375 C 2.191406 -2.515625 1.679688 -2.851562 1.359375 -3.125 L 0.859375 -3.546875 L 4.40625 -9.5 C 4.707031 -9.25 5.117188 -8.925781 5.640625 -8.53125 C 6.171875 -8.144531 7.109375 -7.625 8.453125 -6.96875 C 9.804688 -6.320312 10.992188 -6 12.015625 -6 C 15.003906 -6 16.5 -7.015625 16.5 -9.046875 C 16.5 -9.472656 16.390625 -9.867188 16.171875 -10.234375 C 15.960938 -10.597656 15.585938 -10.960938 15.046875 -11.328125 C 14.515625 -11.691406 14.039062 -11.976562 13.625 -12.1875 C 13.207031 -12.40625 12.523438 -12.734375 11.578125 -13.171875 C 10.640625 -13.609375 9.945312 -13.941406 9.5 -14.171875 C 7.613281 -15.097656 6.15625 -16.257812 5.125 -17.65625 C 4.09375 -19.050781 3.578125 -20.550781 3.578125 -22.15625 C 3.578125 -24.945312 4.609375 -27.226562 6.671875 -29 C 8.734375 -30.769531 11.082031 -31.65625 13.71875 -31.65625 Z M 13.71875 -31.65625 "/></g></g></g><g fill="#000000" fill-opacity="1"><g transform="translate(220.140508, 215.823927)"><g><path d="M 26.15625 -31.09375 L 26.15625 -11.046875 C 26.15625 -7.222656 25.125 -4.332031 23.0625 -2.375 C 21 -0.414062 17.984375 0.5625 14.015625 0.5625 C 10.046875 0.5625 7.03125 -0.414062 4.96875 -2.375 C 2.914062 -4.332031 1.890625 -7.222656 1.890625 -11.046875 L 1.890625 -31.09375 L 8.96875 -31.09375 L 8.96875 -13.109375 C 8.96875 -10.597656 9.363281 -8.851562 10.15625 -7.875 C 10.945312 -6.894531 12.234375 -6.40625 14.015625 -6.40625 C 15.804688 -6.40625 17.09375 -6.894531 17.875 -7.875 C 18.664062 -8.851562 19.0625 -10.597656 19.0625 -13.109375 L 19.0625 -31.09375 Z M 26.15625 -31.09375 "/></g></g></g><g fill="#000000" fill-opacity="1"><g transform="translate(248.556292, 215.823927)"><g><path d="M 9.34375 -31.09375 L 9.34375 -6.21875 L 20.046875 -6.21875 L 20.046875 0 L 2.265625 0 L 2.265625 -31.09375 Z M 9.34375 -31.09375 "/></g></g></g><g fill="#000000" fill-opacity="1"><g transform="translate(270.226172, 215.823927)"><g><path d="M 0.296875 -24.875 L 0.296875 -31.09375 L 22.15625 -31.09375 L 22.15625 -24.875 L 14.78125 -24.875 L 14.78125 0 L 7.6875 0 L 7.6875 -24.875 Z M 0.296875 -24.875 "/></g></g></g><g fill="#000000" fill-opacity="1"><g transform="translate(293.064347, 215.823927)"><g><path d="M 9.34375 -31.09375 L 9.34375 0 L 2.265625 0 L 2.265625 -31.09375 Z M 9.34375 -31.09375 "/></g></g></g><g fill="#000000" fill-opacity="1"><g transform="translate(305.048783, 215.823927)"><g><path d="M 9.34375 -19.296875 L 9.34375 0 L 2.265625 0 L 2.265625 -31.09375 L 9.34375 -31.09375 L 21.703125 -11.796875 L 21.78125 -11.796875 L 21.78125 -31.09375 L 28.875 -31.09375 L 28.875 0 L 21.78125 0 L 9.421875 -19.296875 Z M 9.34375 -19.296875 "/></g></g></g><g fill="#000000" fill-opacity="1"><g transform="translate(336.55487, 215.823927)"><g><path d="M 30.375 -17.40625 L 30.375 -10.671875 C 29.570312 -6.972656 27.8125 -4.175781 25.09375 -2.28125 C 22.382812 -0.382812 19.359375 0.5625 16.015625 0.5625 C 11.816406 0.5625 8.238281 -1.003906 5.28125 -4.140625 C 2.332031 -7.285156 0.859375 -11.082031 0.859375 -15.53125 C 0.859375 -20.050781 2.300781 -23.867188 5.1875 -26.984375 C 8.082031 -30.097656 11.691406 -31.65625 16.015625 -31.65625 C 21.066406 -31.65625 25.0625 -29.882812 28 -26.34375 L 23.359375 -21.25 C 21.703125 -23.914062 19.394531 -25.25 16.4375 -25.25 C 14.25 -25.25 12.378906 -24.300781 10.828125 -22.40625 C 9.285156 -20.507812 8.515625 -18.21875 8.515625 -15.53125 C 8.515625 -12.882812 9.285156 -10.625 10.828125 -8.75 C 12.378906 -6.882812 14.25 -5.953125 16.4375 -5.953125 C 18.238281 -5.953125 19.8125 -6.5 21.15625 -7.59375 C 22.5 -8.6875 23.171875 -10.140625 23.171875 -11.953125 L 16.015625 -11.953125 L 16.015625 -17.40625 Z M 30.375 -17.40625 "/></g></g></g></svg>