<svg xmlns="http://www.w3.org/2000/svg" xmlns:xlink="http://www.w3.org/1999/xlink" width="500" zoomAndPan="magnify" viewBox="0 0 375 374.999991" height="500" preserveAspectRatio="xMidYMid meet" version="1.0"><defs><clipPath id="a3b9b342ca"><path d="M 60 4.394531 L 308 4.394531 L 308 295 L 60 295 Z M 60 4.394531 " clip-rule="nonzero"/></clipPath><clipPath id="0fac6f86ae"><path d="M 60 84 L 315.824219 84 L 315.824219 369 L 60 369 Z M 60 84 " clip-rule="nonzero"/></clipPath></defs><rect x="-37.5" width="450" fill="#ffffff" y="-37.499999" height="449.999989" fill-opacity="1"/><rect x="-37.5" width="450" fill="#ffffff" y="-37.499999" height="449.999989" fill-opacity="1"/><g clip-path="url(#a3b9b342ca)"><path fill="#000000" d="M 61.292969 134.496094 C 61.195312 133.464844 61.019531 132.4375 61.019531 131.398438 C 61 90.328125 61.027344 49.25 60.941406 8.179688 C 60.933594 5.347656 61.890625 4.636719 64.585938 4.636719 C 109.738281 4.703125 154.878906 4.714844 200.027344 4.671875 C 223.589844 4.644531 244.957031 11.425781 263.863281 25.445312 C 279.492188 37.039062 291.089844 51.878906 298.714844 69.855469 C 305.980469 86.980469 308.402344 104.832031 306.296875 123.113281 C 303.238281 149.621094 291.597656 172.042969 271.78125 190.046875 C 260.511719 200.28125 247.632812 207.839844 232.992188 212.242188 C 229.515625 213.289062 225.953125 214.066406 222.441406 215.03125 C 221.335938 215.332031 220.289062 215.816406 218.292969 216.5625 C 222.710938 220.773438 226.699219 224.445312 230.539062 228.269531 C 244.613281 242.28125 258.601562 256.394531 272.753906 270.328125 C 274.765625 272.304688 274.816406 273.675781 273.238281 275.777344 C 268.523438 282.070312 263.34375 287.898438 257.242188 292.929688 C 255.097656 294.703125 253.789062 294.402344 251.972656 292.578125 C 222.695312 263.230469 193.367188 233.945312 164.046875 204.644531 C 159.210938 199.8125 154.410156 194.960938 149.546875 190.15625 C 148.859375 189.476562 147.957031 189.015625 147.152344 188.449219 C 147.34375 188.105469 147.546875 187.761719 147.738281 187.417969 C 148.851562 187.34375 149.957031 187.207031 151.074219 187.207031 C 166.703125 187.191406 182.328125 187.042969 197.957031 187.234375 C 214.3125 187.433594 229.355469 183.324219 242.921875 174.203125 C 257.644531 164.292969 267.816406 150.800781 273.25 133.953125 C 277.179688 121.773438 277.6875 109.277344 275.300781 96.664062 C 271.78125 78.050781 262.378906 63 247.65625 51.257812 C 238.339844 43.824219 227.871094 38.5625 216.03125 36.585938 C 210.300781 35.632812 204.441406 34.929688 198.644531 34.902344 C 164.105469 34.746094 129.554688 34.820312 95.015625 34.820312 C 91.378906 34.820312 91.292969 34.886719 91.292969 38.453125 C 91.285156 58.253906 91.320312 78.066406 91.226562 97.871094 C 91.21875 99.265625 90.75 101.117188 89.800781 101.996094 C 79.226562 111.746094 69.976562 122.59375 61.292969 134.496094 Z M 61.292969 134.496094 " fill-opacity="1" fill-rule="nonzero"/></g><g clip-path="url(#0fac6f86ae)"><path fill="#000000" d="M 315.851562 313.46875 L 288.582031 340.140625 L 288.566406 340.160156 C 276.660156 349.238281 263.496094 356.121094 249.28125 361.066406 C 229.382812 367.980469 208.800781 370.15625 188.003906 367.855469 C 153.300781 364.03125 123.695312 349.367188 99.597656 323.972656 C 86.25 309.910156 76.234375 293.722656 69.632812 275.542969 C 62.441406 255.75 59.324219 235.269531 61.519531 214.261719 C 66.429688 167.332031 88.914062 131.03125 128.667969 105.578125 C 139.96875 98.339844 152.332031 93.242188 165.367188 89.726562 C 179.671875 85.867188 194.167969 84.027344 208.960938 84.644531 C 220.667969 85.128906 232.128906 87.230469 243.449219 90.253906 C 247.128906 91.242188 247.640625 94.285156 248.453125 97.117188 C 250.992188 105.964844 251.320312 114.859375 248.527344 124.117188 C 244.289062 122.660156 240.351562 120.917969 236.234375 119.972656 C 228 118.074219 219.726562 116.023438 211.347656 115.101562 C 199.851562 113.839844 188.304688 114.945312 177.101562 117.816406 C 150.738281 124.550781 129.210938 138.65625 112.953125 160.625 C 105.289062 170.980469 99.523438 182.269531 95.875 194.582031 C 91.269531 210.167969 90.0625 226.027344 92.375 242.191406 C 96.347656 269.976562 109.183594 292.917969 130.183594 311.308594 C 141.167969 320.933594 153.761719 327.886719 167.691406 332.644531 C 183.484375 338.042969 199.632812 339.378906 216.023438 337.707031 C 231.234375 336.15625 245.511719 331.277344 258.769531 323.585938 C 271.707031 316.085938 282.757812 306.445312 291.859375 294.585938 C 293.878906 291.957031 294.265625 291.90625 296.453125 294.089844 C 302.921875 300.554688 309.390625 307.015625 315.851562 313.46875 Z M 315.851562 313.46875 " fill-opacity="1" fill-rule="nonzero"/></g></svg>