<svg xmlns="http://www.w3.org/2000/svg" xmlns:xlink="http://www.w3.org/1999/xlink" width="500" zoomAndPan="magnify" viewBox="0 0 375 374.999991" height="500" preserveAspectRatio="xMidYMid meet" version="1.0"><defs><g/><clipPath id="521d6fd68b"><path d="M 4 118.078125 L 98 118.078125 L 98 228 L 4 228 Z M 4 118.078125 " clip-rule="nonzero"/></clipPath><clipPath id="bffef49711"><path d="M 4 148 L 101 148 L 101 256.828125 L 4 256.828125 Z M 4 148 " clip-rule="nonzero"/></clipPath></defs><g clip-path="url(#521d6fd68b)"><path fill="#ffffff" d="M 4.308594 167.429688 C 4.269531 167.039062 4.203125 166.648438 4.203125 166.253906 C 4.195312 150.675781 4.207031 135.09375 4.171875 119.515625 C 4.171875 118.441406 4.53125 118.171875 5.554688 118.171875 C 22.660156 118.195312 39.765625 118.199219 56.871094 118.183594 C 65.796875 118.175781 73.894531 120.746094 81.058594 126.066406 C 86.976562 130.460938 91.371094 136.089844 94.261719 142.910156 C 97.015625 149.40625 97.929688 156.179688 97.132812 163.113281 C 95.976562 173.167969 91.566406 181.671875 84.058594 188.503906 C 79.785156 192.386719 74.90625 195.253906 69.359375 196.921875 C 68.042969 197.320312 66.695312 197.613281 65.363281 197.980469 C 64.945312 198.09375 64.546875 198.277344 63.792969 198.558594 C 65.464844 200.15625 66.976562 201.550781 68.429688 203 C 73.765625 208.316406 79.0625 213.667969 84.425781 218.957031 C 85.1875 219.703125 85.207031 220.226562 84.609375 221.023438 C 82.820312 223.410156 80.859375 225.621094 78.546875 227.527344 C 77.734375 228.199219 77.242188 228.085938 76.550781 227.394531 C 65.457031 216.261719 54.347656 205.15625 43.238281 194.039062 C 41.40625 192.207031 39.585938 190.367188 37.746094 188.542969 C 37.484375 188.285156 37.140625 188.113281 36.835938 187.894531 C 36.910156 187.765625 36.984375 187.636719 37.058594 187.503906 C 37.480469 187.476562 37.898438 187.425781 38.324219 187.425781 C 44.242188 187.417969 50.164062 187.363281 56.085938 187.433594 C 62.285156 187.511719 67.984375 185.953125 73.121094 182.492188 C 78.699219 178.734375 82.554688 173.613281 84.613281 167.222656 C 86.101562 162.605469 86.296875 157.863281 85.390625 153.078125 C 84.058594 146.019531 80.496094 140.308594 74.917969 135.855469 C 71.386719 133.035156 67.421875 131.039062 62.933594 130.289062 C 60.761719 129.929688 58.542969 129.660156 56.347656 129.652344 C 43.257812 129.59375 30.167969 129.621094 17.082031 129.621094 C 15.703125 129.621094 15.671875 129.644531 15.671875 131 C 15.667969 138.511719 15.683594 146.023438 15.648438 153.535156 C 15.644531 154.066406 15.464844 154.769531 15.109375 155.101562 C 11.101562 158.800781 7.597656 162.914062 4.308594 167.429688 Z M 4.308594 167.429688 " fill-opacity="1" fill-rule="nonzero"/></g><g clip-path="url(#bffef49711)"><path fill="#ffffff" d="M 100.753906 235.320312 L 90.421875 245.4375 L 90.417969 245.445312 C 85.90625 248.890625 80.917969 251.5 75.53125 253.375 C 67.992188 255.996094 60.195312 256.824219 52.3125 255.949219 C 39.167969 254.5 27.949219 248.9375 18.820312 239.304688 C 13.761719 233.96875 9.96875 227.828125 7.464844 220.933594 C 4.742188 213.425781 3.5625 205.65625 4.390625 197.6875 C 6.253906 179.886719 14.769531 166.117188 29.832031 156.460938 C 34.117188 153.714844 38.796875 151.78125 43.738281 150.449219 C 49.160156 148.984375 54.652344 148.285156 60.253906 148.519531 C 64.691406 148.703125 69.035156 149.5 73.324219 150.648438 C 74.714844 151.023438 74.910156 152.179688 75.21875 153.25 C 76.179688 156.605469 76.304688 159.980469 75.246094 163.492188 C 73.640625 162.941406 72.148438 162.28125 70.589844 161.921875 C 67.46875 161.203125 64.335938 160.421875 61.160156 160.074219 C 56.804688 159.59375 52.429688 160.015625 48.183594 161.101562 C 38.195312 163.660156 30.039062 169.007812 23.878906 177.34375 C 20.976562 181.269531 18.789062 185.550781 17.410156 190.222656 C 15.664062 196.132812 15.207031 202.152344 16.082031 208.28125 C 17.585938 218.824219 22.453125 227.523438 30.40625 234.5 C 34.570312 238.152344 39.339844 240.789062 44.617188 242.59375 C 50.601562 244.640625 56.722656 245.148438 62.929688 244.511719 C 68.695312 243.925781 74.105469 242.074219 79.125 239.15625 C 84.027344 236.3125 88.214844 232.65625 91.664062 228.15625 C 92.429688 227.160156 92.574219 227.140625 93.402344 227.96875 C 95.855469 230.421875 98.304688 232.871094 100.753906 235.320312 Z M 100.753906 235.320312 " fill-opacity="1" fill-rule="nonzero"/></g><g fill="#ffffff" fill-opacity="1"><g transform="translate(100.749, 176.575066)"><g><path d="M 2.265625 -31.09375 L 13.375 -31.09375 C 16.363281 -31.09375 18.800781 -30.296875 20.6875 -28.703125 C 22.570312 -27.109375 23.515625 -24.828125 23.515625 -21.859375 C 23.515625 -19.566406 22.941406 -17.648438 21.796875 -16.109375 C 20.660156 -14.566406 19.109375 -13.476562 17.140625 -12.84375 L 27.84375 0 L 18.84375 0 L 9.34375 -12.28125 L 9.34375 0 L 2.265625 0 Z M 9.34375 -17.296875 L 10.171875 -17.296875 C 10.828125 -17.296875 11.378906 -17.304688 11.828125 -17.328125 C 12.285156 -17.359375 12.800781 -17.445312 13.375 -17.59375 C 13.957031 -17.75 14.421875 -17.960938 14.765625 -18.234375 C 15.117188 -18.515625 15.421875 -18.914062 15.671875 -19.4375 C 15.929688 -19.96875 16.0625 -20.609375 16.0625 -21.359375 C 16.0625 -22.117188 15.929688 -22.757812 15.671875 -23.28125 C 15.421875 -23.8125 15.117188 -24.210938 14.765625 -24.484375 C 14.421875 -24.765625 13.957031 -24.976562 13.375 -25.125 C 12.800781 -25.28125 12.285156 -25.367188 11.828125 -25.390625 C 11.378906 -25.421875 10.828125 -25.4375 10.171875 -25.4375 L 9.34375 -25.4375 Z M 9.34375 -17.296875 "/></g></g></g><g fill="#ffffff" fill-opacity="1"><g transform="translate(128.561939, 176.575066)"><g><path d="M 20.046875 -31.09375 L 20.046875 -24.875 L 9.34375 -24.875 L 9.34375 -18.6875 L 19.59375 -18.6875 L 19.59375 -12.46875 L 9.34375 -12.46875 L 9.34375 -6.21875 L 20.046875 -6.21875 L 20.046875 0 L 2.265625 0 L 2.265625 -31.09375 Z M 20.046875 -31.09375 "/></g></g></g><g fill="#ffffff" fill-opacity="1"><g transform="translate(151.249502, 176.575066)"><g><path d="M 20.234375 -31.09375 L 20.234375 -24.875 L 9.34375 -24.875 L 9.34375 -18.6875 L 19.40625 -18.6875 L 19.40625 -12.46875 L 9.34375 -12.46875 L 9.34375 0 L 2.265625 0 L 2.265625 -31.09375 Z M 20.234375 -31.09375 "/></g></g></g><g fill="#ffffff" fill-opacity="1"><g transform="translate(173.447143, 176.575066)"><g><path d="M 2.265625 -31.09375 L 13.375 -31.09375 C 16.363281 -31.09375 18.800781 -30.296875 20.6875 -28.703125 C 22.570312 -27.109375 23.515625 -24.828125 23.515625 -21.859375 C 23.515625 -19.566406 22.941406 -17.648438 21.796875 -16.109375 C 20.660156 -14.566406 19.109375 -13.476562 17.140625 -12.84375 L 27.84375 0 L 18.84375 0 L 9.34375 -12.28125 L 9.34375 0 L 2.265625 0 Z M 9.34375 -17.296875 L 10.171875 -17.296875 C 10.828125 -17.296875 11.378906 -17.304688 11.828125 -17.328125 C 12.285156 -17.359375 12.800781 -17.445312 13.375 -17.59375 C 13.957031 -17.75 14.421875 -17.960938 14.765625 -18.234375 C 15.117188 -18.515625 15.421875 -18.914062 15.671875 -19.4375 C 15.929688 -19.96875 16.0625 -20.609375 16.0625 -21.359375 C 16.0625 -22.117188 15.929688 -22.757812 15.671875 -23.28125 C 15.421875 -23.8125 15.117188 -24.210938 14.765625 -24.484375 C 14.421875 -24.765625 13.957031 -24.976562 13.375 -25.125 C 12.800781 -25.28125 12.285156 -25.367188 11.828125 -25.390625 C 11.378906 -25.421875 10.828125 -25.4375 10.171875 -25.4375 L 9.34375 -25.4375 Z M 9.34375 -17.296875 "/></g></g></g><g fill="#ffffff" fill-opacity="1"><g transform="translate(201.260079, 176.575066)"><g><path d="M 18.046875 -31.09375 L 30.609375 0 L 22.984375 0 L 20.6875 -6.21875 L 8.859375 -6.21875 L 6.5625 0 L -1.0625 0 L 11.5 -31.09375 Z M 18.28125 -12.4375 L 14.8125 -21.484375 L 14.734375 -21.484375 L 11.265625 -12.4375 Z M 18.28125 -12.4375 "/></g></g></g><g fill="#ffffff" fill-opacity="1"><g transform="translate(231.635702, 176.575066)"><g><path d="M 9.34375 -19.296875 L 9.34375 0 L 2.265625 0 L 2.265625 -31.09375 L 9.34375 -31.09375 L 21.703125 -11.796875 L 21.78125 -11.796875 L 21.78125 -31.09375 L 28.875 -31.09375 L 28.875 0 L 21.78125 0 L 9.421875 -19.296875 Z M 9.34375 -19.296875 "/></g></g></g><g fill="#ffffff" fill-opacity="1"><g transform="translate(263.594173, 176.575066)"><g><path d="M 18.8125 -6.40625 C 19.882812 -6.40625 20.929688 -6.566406 21.953125 -6.890625 C 22.972656 -7.222656 23.722656 -7.539062 24.203125 -7.84375 L 24.90625 -8.328125 L 27.921875 -2.296875 C 27.828125 -2.222656 27.691406 -2.125 27.515625 -2 C 27.335938 -1.875 26.925781 -1.640625 26.28125 -1.296875 C 25.644531 -0.960938 24.960938 -0.664062 24.234375 -0.40625 C 23.503906 -0.15625 22.546875 0.0664062 21.359375 0.265625 C 20.179688 0.460938 18.96875 0.5625 17.71875 0.5625 C 14.820312 0.5625 12.078125 -0.144531 9.484375 -1.5625 C 6.898438 -2.976562 4.816406 -4.929688 3.234375 -7.421875 C 1.648438 -9.910156 0.859375 -12.597656 0.859375 -15.484375 C 0.859375 -17.671875 1.320312 -19.769531 2.25 -21.78125 C 3.1875 -23.789062 4.425781 -25.507812 5.96875 -26.9375 C 7.519531 -28.375 9.320312 -29.519531 11.375 -30.375 C 13.4375 -31.226562 15.550781 -31.65625 17.71875 -31.65625 C 19.726562 -31.65625 21.578125 -31.414062 23.265625 -30.9375 C 24.960938 -30.457031 26.164062 -29.984375 26.875 -29.515625 L 27.921875 -28.796875 L 24.90625 -22.765625 C 24.726562 -22.910156 24.460938 -23.085938 24.109375 -23.296875 C 23.765625 -23.515625 23.0625 -23.800781 22 -24.15625 C 20.945312 -24.507812 19.882812 -24.6875 18.8125 -24.6875 C 17.101562 -24.6875 15.566406 -24.410156 14.203125 -23.859375 C 12.847656 -23.304688 11.773438 -22.578125 10.984375 -21.671875 C 10.191406 -20.765625 9.585938 -19.789062 9.171875 -18.75 C 8.765625 -17.707031 8.5625 -16.644531 8.5625 -15.5625 C 8.5625 -13.195312 9.445312 -11.078125 11.21875 -9.203125 C 12.988281 -7.335938 15.519531 -6.40625 18.8125 -6.40625 Z M 18.8125 -6.40625 "/></g></g></g><g fill="#ffffff" fill-opacity="1"><g transform="translate(292.8015, 176.575066)"><g><path d="M 9.34375 -31.09375 L 9.34375 0 L 2.265625 0 L 2.265625 -31.09375 Z M 9.34375 -31.09375 "/></g></g></g><g fill="#ffffff" fill-opacity="1"><g transform="translate(305.238311, 176.575066)"><g><path d="M 13.71875 -31.65625 C 15.40625 -31.65625 17.050781 -31.410156 18.65625 -30.921875 C 20.257812 -30.429688 21.453125 -29.945312 22.234375 -29.46875 L 23.359375 -28.71875 L 20.5 -23.0625 C 20.269531 -23.21875 19.953125 -23.410156 19.546875 -23.640625 C 19.148438 -23.878906 18.398438 -24.203125 17.296875 -24.609375 C 16.191406 -25.015625 15.160156 -25.21875 14.203125 -25.21875 C 13.023438 -25.21875 12.113281 -24.960938 11.46875 -24.453125 C 10.832031 -23.953125 10.515625 -23.273438 10.515625 -22.421875 C 10.515625 -21.992188 10.664062 -21.597656 10.96875 -21.234375 C 11.269531 -20.867188 11.785156 -20.476562 12.515625 -20.0625 C 13.242188 -19.65625 13.882812 -19.320312 14.4375 -19.0625 C 14.988281 -18.8125 15.84375 -18.4375 17 -17.9375 C 19.007812 -17.082031 20.722656 -15.921875 22.140625 -14.453125 C 23.554688 -12.984375 24.265625 -11.316406 24.265625 -9.453125 C 24.265625 -7.671875 23.941406 -6.113281 23.296875 -4.78125 C 22.660156 -3.445312 21.785156 -2.40625 20.671875 -1.65625 C 19.554688 -0.90625 18.316406 -0.347656 16.953125 0.015625 C 15.597656 0.378906 14.128906 0.5625 12.546875 0.5625 C 11.191406 0.5625 9.859375 0.421875 8.546875 0.140625 C 7.242188 -0.128906 6.148438 -0.46875 5.265625 -0.875 C 4.390625 -1.289062 3.597656 -1.703125 2.890625 -2.109375 C 2.191406 -2.515625 1.679688 -2.851562 1.359375 -3.125 L 0.859375 -3.546875 L 4.40625 -9.5 C 4.707031 -9.25 5.117188 -8.925781 5.640625 -8.53125 C 6.171875 -8.144531 7.109375 -7.625 8.453125 -6.96875 C 9.804688 -6.320312 10.992188 -6 12.015625 -6 C 15.003906 -6 16.5 -7.015625 16.5 -9.046875 C 16.5 -9.472656 16.390625 -9.867188 16.171875 -10.234375 C 15.960938 -10.597656 15.585938 -10.960938 15.046875 -11.328125 C 14.515625 -11.691406 14.039062 -11.976562 13.625 -12.1875 C 13.207031 -12.40625 12.523438 -12.734375 11.578125 -13.171875 C 10.640625 -13.609375 9.945312 -13.941406 9.5 -14.171875 C 7.613281 -15.097656 6.15625 -16.257812 5.125 -17.65625 C 4.09375 -19.050781 3.578125 -20.550781 3.578125 -22.15625 C 3.578125 -24.945312 4.609375 -27.226562 6.671875 -29 C 8.734375 -30.769531 11.082031 -31.65625 13.71875 -31.65625 Z M 13.71875 -31.65625 "/></g></g></g><g fill="#ffffff" fill-opacity="1"><g transform="translate(331.393043, 176.575066)"><g><path d="M 0.859375 -15.5625 C 0.859375 -20.0625 2.390625 -23.867188 5.453125 -26.984375 C 8.523438 -30.097656 12.222656 -31.65625 16.546875 -31.65625 C 20.890625 -31.65625 24.582031 -30.101562 27.625 -27 C 30.664062 -23.894531 32.1875 -20.082031 32.1875 -15.5625 C 32.1875 -11.019531 30.691406 -7.195312 27.703125 -4.09375 C 24.710938 -0.988281 20.992188 0.5625 16.546875 0.5625 C 11.992188 0.5625 8.238281 -0.972656 5.28125 -4.046875 C 2.332031 -7.128906 0.859375 -10.96875 0.859375 -15.5625 Z M 8.515625 -15.5625 C 8.515625 -13.925781 8.765625 -12.4375 9.265625 -11.09375 C 9.773438 -9.75 10.65625 -8.613281 11.90625 -7.6875 C 13.164062 -6.757812 14.710938 -6.296875 16.546875 -6.296875 C 19.179688 -6.296875 21.171875 -7.195312 22.515625 -9 C 23.859375 -10.8125 24.53125 -13 24.53125 -15.5625 C 24.53125 -18.101562 23.84375 -20.285156 22.46875 -22.109375 C 21.101562 -23.929688 19.128906 -24.84375 16.546875 -24.84375 C 13.984375 -24.84375 12.003906 -23.929688 10.609375 -22.109375 C 9.210938 -20.285156 8.515625 -18.101562 8.515625 -15.5625 Z M 8.515625 -15.5625 "/></g></g></g><g fill="#ffffff" fill-opacity="1"><g transform="translate(100.749, 215.823927)"><g><path d="M 18.8125 -6.40625 C 19.882812 -6.40625 20.929688 -6.566406 21.953125 -6.890625 C 22.972656 -7.222656 23.722656 -7.539062 24.203125 -7.84375 L 24.90625 -8.328125 L 27.921875 -2.296875 C 27.828125 -2.222656 27.691406 -2.125 27.515625 -2 C 27.335938 -1.875 26.925781 -1.640625 26.28125 -1.296875 C 25.644531 -0.960938 24.960938 -0.664062 24.234375 -0.40625 C 23.503906 -0.15625 22.546875 0.0664062 21.359375 0.265625 C 20.179688 0.460938 18.96875 0.5625 17.71875 0.5625 C 14.820312 0.5625 12.078125 -0.144531 9.484375 -1.5625 C 6.898438 -2.976562 4.816406 -4.929688 3.234375 -7.421875 C 1.648438 -9.910156 0.859375 -12.597656 0.859375 -15.484375 C 0.859375 -17.671875 1.320312 -19.769531 2.25 -21.78125 C 3.1875 -23.789062 4.425781 -25.507812 5.96875 -26.9375 C 7.519531 -28.375 9.320312 -29.519531 11.375 -30.375 C 13.4375 -31.226562 15.550781 -31.65625 17.71875 -31.65625 C 19.726562 -31.65625 21.578125 -31.414062 23.265625 -30.9375 C 24.960938 -30.457031 26.164062 -29.984375 26.875 -29.515625 L 27.921875 -28.796875 L 24.90625 -22.765625 C 24.726562 -22.910156 24.460938 -23.085938 24.109375 -23.296875 C 23.765625 -23.515625 23.0625 -23.800781 22 -24.15625 C 20.945312 -24.507812 19.882812 -24.6875 18.8125 -24.6875 C 17.101562 -24.6875 15.566406 -24.410156 14.203125 -23.859375 C 12.847656 -23.304688 11.773438 -22.578125 10.984375 -21.671875 C 10.191406 -20.765625 9.585938 -19.789062 9.171875 -18.75 C 8.765625 -17.707031 8.5625 -16.644531 8.5625 -15.5625 C 8.5625 -13.195312 9.445312 -11.078125 11.21875 -9.203125 C 12.988281 -7.335938 15.519531 -6.40625 18.8125 -6.40625 Z M 18.8125 -6.40625 "/></g></g></g><g fill="#ffffff" fill-opacity="1"><g transform="translate(129.503955, 215.823927)"><g><path d="M 0.859375 -15.5625 C 0.859375 -20.0625 2.390625 -23.867188 5.453125 -26.984375 C 8.523438 -30.097656 12.222656 -31.65625 16.546875 -31.65625 C 20.890625 -31.65625 24.582031 -30.101562 27.625 -27 C 30.664062 -23.894531 32.1875 -20.082031 32.1875 -15.5625 C 32.1875 -11.019531 30.691406 -7.195312 27.703125 -4.09375 C 24.710938 -0.988281 20.992188 0.5625 16.546875 0.5625 C 11.992188 0.5625 8.238281 -0.972656 5.28125 -4.046875 C 2.332031 -7.128906 0.859375 -10.96875 0.859375 -15.5625 Z M 8.515625 -15.5625 C 8.515625 -13.925781 8.765625 -12.4375 9.265625 -11.09375 C 9.773438 -9.75 10.65625 -8.613281 11.90625 -7.6875 C 13.164062 -6.757812 14.710938 -6.296875 16.546875 -6.296875 C 19.179688 -6.296875 21.171875 -7.195312 22.515625 -9 C 23.859375 -10.8125 24.53125 -13 24.53125 -15.5625 C 24.53125 -18.101562 23.84375 -20.285156 22.46875 -22.109375 C 21.101562 -23.929688 19.128906 -24.84375 16.546875 -24.84375 C 13.984375 -24.84375 12.003906 -23.929688 10.609375 -22.109375 C 9.210938 -20.285156 8.515625 -18.101562 8.515625 -15.5625 Z M 8.515625 -15.5625 "/></g></g></g><g fill="#ffffff" fill-opacity="1"><g transform="translate(162.93206, 215.823927)"><g><path d="M 9.34375 -19.296875 L 9.34375 0 L 2.265625 0 L 2.265625 -31.09375 L 9.34375 -31.09375 L 21.703125 -11.796875 L 21.78125 -11.796875 L 21.78125 -31.09375 L 28.875 -31.09375 L 28.875 0 L 21.78125 0 L 9.421875 -19.296875 Z M 9.34375 -19.296875 "/></g></g></g><g fill="#ffffff" fill-opacity="1"><g transform="translate(194.438151, 215.823927)"><g><path d="M 13.71875 -31.65625 C 15.40625 -31.65625 17.050781 -31.410156 18.65625 -30.921875 C 20.257812 -30.429688 21.453125 -29.945312 22.234375 -29.46875 L 23.359375 -28.71875 L 20.5 -23.0625 C 20.269531 -23.21875 19.953125 -23.410156 19.546875 -23.640625 C 19.148438 -23.878906 18.398438 -24.203125 17.296875 -24.609375 C 16.191406 -25.015625 15.160156 -25.21875 14.203125 -25.21875 C 13.023438 -25.21875 12.113281 -24.960938 11.46875 -24.453125 C 10.832031 -23.953125 10.515625 -23.273438 10.515625 -22.421875 C 10.515625 -21.992188 10.664062 -21.597656 10.96875 -21.234375 C 11.269531 -20.867188 11.785156 -20.476562 12.515625 -20.0625 C 13.242188 -19.65625 13.882812 -19.320312 14.4375 -19.0625 C 14.988281 -18.8125 15.84375 -18.4375 17 -17.9375 C 19.007812 -17.082031 20.722656 -15.921875 22.140625 -14.453125 C 23.554688 -12.984375 24.265625 -11.316406 24.265625 -9.453125 C 24.265625 -7.671875 23.941406 -6.113281 23.296875 -4.78125 C 22.660156 -3.445312 21.785156 -2.40625 20.671875 -1.65625 C 19.554688 -0.90625 18.316406 -0.347656 16.953125 0.015625 C 15.597656 0.378906 14.128906 0.5625 12.546875 0.5625 C 11.191406 0.5625 9.859375 0.421875 8.546875 0.140625 C 7.242188 -0.128906 6.148438 -0.46875 5.265625 -0.875 C 4.390625 -1.289062 3.597656 -1.703125 2.890625 -2.109375 C 2.191406 -2.515625 1.679688 -2.851562 1.359375 -3.125 L 0.859375 -3.546875 L 4.40625 -9.5 C 4.707031 -9.25 5.117188 -8.925781 5.640625 -8.53125 C 6.171875 -8.144531 7.109375 -7.625 8.453125 -6.96875 C 9.804688 -6.320312 10.992188 -6 12.015625 -6 C 15.003906 -6 16.5 -7.015625 16.5 -9.046875 C 16.5 -9.472656 16.390625 -9.867188 16.171875 -10.234375 C 15.960938 -10.597656 15.585938 -10.960938 15.046875 -11.328125 C 14.515625 -11.691406 14.039062 -11.976562 13.625 -12.1875 C 13.207031 -12.40625 12.523438 -12.734375 11.578125 -13.171875 C 10.640625 -13.609375 9.945312 -13.941406 9.5 -14.171875 C 7.613281 -15.097656 6.15625 -16.257812 5.125 -17.65625 C 4.09375 -19.050781 3.578125 -20.550781 3.578125 -22.15625 C 3.578125 -24.945312 4.609375 -27.226562 6.671875 -29 C 8.734375 -30.769531 11.082031 -31.65625 13.71875 -31.65625 Z M 13.71875 -31.65625 "/></g></g></g><g fill="#ffffff" fill-opacity="1"><g transform="translate(220.140508, 215.823927)"><g><path d="M 26.15625 -31.09375 L 26.15625 -11.046875 C 26.15625 -7.222656 25.125 -4.332031 23.0625 -2.375 C 21 -0.414062 17.984375 0.5625 14.015625 0.5625 C 10.046875 0.5625 7.03125 -0.414062 4.96875 -2.375 C 2.914062 -4.332031 1.890625 -7.222656 1.890625 -11.046875 L 1.890625 -31.09375 L 8.96875 -31.09375 L 8.96875 -13.109375 C 8.96875 -10.597656 9.363281 -8.851562 10.15625 -7.875 C 10.945312 -6.894531 12.234375 -6.40625 14.015625 -6.40625 C 15.804688 -6.40625 17.09375 -6.894531 17.875 -7.875 C 18.664062 -8.851562 19.0625 -10.597656 19.0625 -13.109375 L 19.0625 -31.09375 Z M 26.15625 -31.09375 "/></g></g></g><g fill="#ffffff" fill-opacity="1"><g transform="translate(248.556292, 215.823927)"><g><path d="M 9.34375 -31.09375 L 9.34375 -6.21875 L 20.046875 -6.21875 L 20.046875 0 L 2.265625 0 L 2.265625 -31.09375 Z M 9.34375 -31.09375 "/></g></g></g><g fill="#ffffff" fill-opacity="1"><g transform="translate(270.226172, 215.823927)"><g><path d="M 0.296875 -24.875 L 0.296875 -31.09375 L 22.15625 -31.09375 L 22.15625 -24.875 L 14.78125 -24.875 L 14.78125 0 L 7.6875 0 L 7.6875 -24.875 Z M 0.296875 -24.875 "/></g></g></g><g fill="#ffffff" fill-opacity="1"><g transform="translate(293.064347, 215.823927)"><g><path d="M 9.34375 -31.09375 L 9.34375 0 L 2.265625 0 L 2.265625 -31.09375 Z M 9.34375 -31.09375 "/></g></g></g><g fill="#ffffff" fill-opacity="1"><g transform="translate(305.048783, 215.823927)"><g><path d="M 9.34375 -19.296875 L 9.34375 0 L 2.265625 0 L 2.265625 -31.09375 L 9.34375 -31.09375 L 21.703125 -11.796875 L 21.78125 -11.796875 L 21.78125 -31.09375 L 28.875 -31.09375 L 28.875 0 L 21.78125 0 L 9.421875 -19.296875 Z M 9.34375 -19.296875 "/></g></g></g><g fill="#ffffff" fill-opacity="1"><g transform="translate(336.55487, 215.823927)"><g><path d="M 30.375 -17.40625 L 30.375 -10.671875 C 29.570312 -6.972656 27.8125 -4.175781 25.09375 -2.28125 C 22.382812 -0.382812 19.359375 0.5625 16.015625 0.5625 C 11.816406 0.5625 8.238281 -1.003906 5.28125 -4.140625 C 2.332031 -7.285156 0.859375 -11.082031 0.859375 -15.53125 C 0.859375 -20.050781 2.300781 -23.867188 5.1875 -26.984375 C 8.082031 -30.097656 11.691406 -31.65625 16.015625 -31.65625 C 21.066406 -31.65625 25.0625 -29.882812 28 -26.34375 L 23.359375 -21.25 C 21.703125 -23.914062 19.394531 -25.25 16.4375 -25.25 C 14.25 -25.25 12.378906 -24.300781 10.828125 -22.40625 C 9.285156 -20.507812 8.515625 -18.21875 8.515625 -15.53125 C 8.515625 -12.882812 9.285156 -10.625 10.828125 -8.75 C 12.378906 -6.882812 14.25 -5.953125 16.4375 -5.953125 C 18.238281 -5.953125 19.8125 -6.5 21.15625 -7.59375 C 22.5 -8.6875 23.171875 -10.140625 23.171875 -11.953125 L 16.015625 -11.953125 L 16.015625 -17.40625 Z M 30.375 -17.40625 "/></g></g></g></svg>