<svg xmlns="http://www.w3.org/2000/svg" xmlns:xlink="http://www.w3.org/1999/xlink" width="500" zoomAndPan="magnify" viewBox="0 0 375 374.999991" height="500" preserveAspectRatio="xMidYMid meet" version="1.0"><defs><clipPath id="3c25175418"><path d="M 60 4.394531 L 307 4.394531 L 307 295 L 60 295 Z M 60 4.394531 " clip-rule="nonzero"/></clipPath><clipPath id="33a8742755"><path d="M 60 84 L 315.824219 84 L 315.824219 369 L 60 369 Z M 60 84 " clip-rule="nonzero"/></clipPath></defs><rect x="-37.5" width="450" fill="#ffffff" y="-37.499999" height="449.999989" fill-opacity="1"/><rect x="-37.5" width="450" fill="#006d77" y="-37.499999" height="449.999989" fill-opacity="1"/><g clip-path="url(#3c25175418)"><path fill="#ffffff" d="M 61.292969 134.570312 C 61.191406 133.539062 61.015625 132.511719 61.015625 131.472656 C 61 90.378906 61.023438 49.273438 60.941406 8.179688 C 60.933594 5.351562 61.886719 4.636719 64.585938 4.636719 C 109.707031 4.707031 154.820312 4.714844 199.945312 4.671875 C 223.492188 4.648438 244.847656 11.429688 263.742188 25.457031 C 279.359375 37.054688 290.949219 51.90625 298.570312 69.894531 C 305.832031 87.027344 308.253906 104.890625 306.152344 123.179688 C 303.09375 149.703125 291.460938 172.140625 271.65625 190.152344 C 260.390625 200.394531 247.519531 207.957031 232.890625 212.363281 C 229.414062 213.410156 225.855469 214.1875 222.347656 215.152344 C 221.242188 215.453125 220.195312 215.9375 218.199219 216.683594 C 222.613281 220.894531 226.601562 224.574219 230.4375 228.398438 C 244.503906 242.417969 258.480469 256.539062 272.628906 270.484375 C 274.636719 272.460938 274.6875 273.832031 273.113281 275.933594 C 268.398438 282.230469 263.222656 288.0625 257.125 293.09375 C 254.980469 294.871094 253.675781 294.566406 251.859375 292.742188 C 222.597656 263.382812 193.285156 234.078125 163.984375 204.757812 C 159.152344 199.925781 154.351562 195.070312 149.496094 190.261719 C 148.808594 189.582031 147.902344 189.121094 147.101562 188.554688 C 147.292969 188.210938 147.492188 187.867188 147.6875 187.523438 C 148.800781 187.449219 149.90625 187.3125 151.019531 187.3125 C 166.636719 187.296875 182.257812 187.148438 197.875 187.339844 C 214.222656 187.539062 229.253906 183.429688 242.8125 174.300781 C 257.527344 164.382812 267.695312 150.882812 273.121094 134.027344 C 277.050781 121.839844 277.558594 109.335938 275.171875 96.71875 C 271.65625 78.09375 262.257812 63.035156 247.546875 51.285156 C 238.230469 43.847656 227.773438 38.582031 215.9375 36.605469 C 210.210938 35.648438 204.355469 34.945312 198.5625 34.921875 C 164.042969 34.761719 129.511719 34.835938 94.992188 34.835938 C 91.359375 34.835938 91.273438 34.902344 91.273438 38.472656 C 91.265625 58.285156 91.300781 78.109375 91.207031 97.921875 C 91.199219 99.320312 90.730469 101.171875 89.785156 102.050781 C 79.214844 111.808594 69.96875 122.660156 61.292969 134.570312 Z M 61.292969 134.570312 " fill-opacity="1" fill-rule="nonzero"/></g><g clip-path="url(#33a8742755)"><path fill="#ffffff" d="M 315.699219 313.644531 L 288.445312 340.335938 L 288.429688 340.351562 C 276.53125 349.4375 263.375 356.324219 249.167969 361.273438 C 229.28125 368.191406 208.710938 370.367188 187.925781 368.0625 C 153.246094 364.238281 123.660156 349.5625 99.574219 324.15625 C 86.234375 310.085938 76.226562 293.890625 69.625 275.699219 C 62.441406 255.894531 59.324219 235.402344 61.519531 214.382812 C 66.425781 167.425781 88.894531 131.105469 128.625 105.636719 C 139.921875 98.390625 152.273438 93.292969 165.304688 89.773438 C 179.601562 85.914062 194.089844 84.070312 208.871094 84.691406 C 220.570312 85.175781 232.027344 87.277344 243.339844 90.300781 C 247.015625 91.289062 247.527344 94.339844 248.339844 97.167969 C 250.878906 106.023438 251.203125 114.921875 248.414062 124.1875 C 244.179688 122.730469 240.242188 120.988281 236.128906 120.039062 C 227.898438 118.140625 219.632812 116.085938 211.257812 115.167969 C 199.769531 113.902344 188.226562 115.007812 177.03125 117.878906 C 150.683594 124.621094 129.167969 138.734375 112.921875 160.714844 C 105.261719 171.074219 99.5 182.375 95.855469 194.691406 C 91.25 210.285156 90.042969 226.15625 92.355469 242.328125 C 96.324219 270.132812 109.152344 293.085938 130.140625 311.484375 C 141.121094 321.117188 153.707031 328.074219 167.625 332.832031 C 183.410156 338.234375 199.550781 339.574219 215.929688 337.898438 C 231.128906 336.347656 245.402344 331.464844 258.648438 323.769531 C 271.582031 316.265625 282.625 306.621094 291.722656 294.753906 C 293.738281 292.121094 294.125 292.074219 296.308594 294.257812 C 302.777344 300.722656 309.242188 307.1875 315.699219 313.644531 Z M 315.699219 313.644531 " fill-opacity="1" fill-rule="nonzero"/></g></svg>