<svg xmlns="http://www.w3.org/2000/svg" xmlns:xlink="http://www.w3.org/1999/xlink" width="500" zoomAndPan="magnify" viewBox="0 0 375 374.999991" height="500" preserveAspectRatio="xMidYMid meet" version="1.0"><defs><g/><clipPath id="74b02a9f10"><path d="M 7.121094 118.078125 L 101 118.078125 L 101 228 L 7.121094 228 Z M 7.121094 118.078125 " clip-rule="nonzero"/></clipPath><clipPath id="18eb844b78"><path d="M 7.121094 148 L 104.621094 148 L 104.621094 256.828125 L 7.121094 256.828125 Z M 7.121094 148 " clip-rule="nonzero"/></clipPath></defs><g clip-path="url(#74b02a9f10)"><path fill="#ffffff" d="M 7.867188 167.429688 C 7.828125 167.039062 7.761719 166.648438 7.761719 166.253906 C 7.757812 150.675781 7.765625 135.09375 7.734375 119.515625 C 7.730469 118.441406 8.09375 118.171875 9.113281 118.171875 C 26.222656 118.195312 43.324219 118.199219 60.429688 118.183594 C 69.359375 118.175781 77.453125 120.746094 84.617188 126.066406 C 90.539062 130.460938 94.933594 136.089844 97.820312 142.910156 C 100.574219 149.40625 101.492188 156.179688 100.695312 163.113281 C 99.535156 173.167969 95.125 181.671875 87.617188 188.503906 C 83.347656 192.386719 78.46875 195.253906 72.921875 196.921875 C 71.601562 197.320312 70.253906 197.613281 68.921875 197.980469 C 68.503906 198.09375 68.109375 198.277344 67.351562 198.558594 C 69.023438 200.15625 70.535156 201.550781 71.992188 203 C 77.324219 208.316406 82.625 213.667969 87.984375 218.957031 C 88.746094 219.703125 88.765625 220.226562 88.171875 221.023438 C 86.382812 223.410156 84.421875 225.621094 82.109375 227.527344 C 81.296875 228.199219 80.800781 228.085938 80.113281 227.394531 C 69.019531 216.261719 57.90625 205.15625 46.796875 194.039062 C 44.964844 192.207031 43.148438 190.367188 41.304688 188.542969 C 41.046875 188.285156 40.703125 188.113281 40.398438 187.894531 C 40.46875 187.765625 40.546875 187.636719 40.621094 187.503906 C 41.042969 187.476562 41.460938 187.425781 41.882812 187.425781 C 47.804688 187.417969 53.726562 187.363281 59.648438 187.433594 C 65.84375 187.511719 71.542969 185.953125 76.683594 182.492188 C 82.261719 178.734375 86.117188 173.613281 88.171875 167.222656 C 89.664062 162.605469 89.855469 157.863281 88.949219 153.078125 C 87.617188 146.019531 84.054688 140.308594 78.476562 135.855469 C 74.945312 133.035156 70.980469 131.039062 66.496094 130.289062 C 64.324219 129.929688 62.105469 129.660156 59.90625 129.652344 C 46.820312 129.59375 33.730469 129.621094 20.644531 129.621094 C 19.265625 129.621094 19.234375 129.644531 19.234375 131 C 19.230469 138.511719 19.242188 146.023438 19.207031 153.535156 C 19.203125 154.066406 19.027344 154.769531 18.667969 155.101562 C 14.660156 158.800781 11.15625 162.914062 7.867188 167.429688 Z M 7.867188 167.429688 " fill-opacity="1" fill-rule="nonzero"/></g><g clip-path="url(#18eb844b78)"><path fill="#ffffff" d="M 104.3125 235.320312 L 93.984375 245.4375 L 93.976562 245.445312 C 89.464844 248.890625 84.476562 251.5 79.09375 253.375 C 71.550781 255.996094 63.753906 256.824219 55.875 255.949219 C 42.726562 254.5 31.511719 248.9375 22.378906 239.304688 C 17.320312 233.96875 13.527344 227.828125 11.027344 220.933594 C 8.300781 213.425781 7.121094 205.65625 7.953125 197.6875 C 9.8125 179.886719 18.332031 166.117188 33.394531 156.460938 C 37.675781 153.714844 42.359375 151.78125 47.300781 150.449219 C 52.71875 148.984375 58.210938 148.285156 63.816406 148.519531 C 68.25 148.703125 72.59375 149.5 76.882812 150.648438 C 78.277344 151.023438 78.46875 152.179688 78.777344 153.25 C 79.742188 156.605469 79.863281 159.980469 78.808594 163.492188 C 77.199219 162.941406 75.707031 162.28125 74.148438 161.921875 C 71.027344 161.203125 67.894531 160.421875 64.71875 160.074219 C 60.363281 159.59375 55.988281 160.015625 51.746094 161.101562 C 41.757812 163.660156 33.601562 169.007812 27.441406 177.34375 C 24.535156 181.269531 22.351562 185.550781 20.96875 190.222656 C 19.222656 196.132812 18.765625 202.152344 19.644531 208.28125 C 21.148438 218.824219 26.011719 227.523438 33.96875 234.5 C 38.128906 238.152344 42.902344 240.789062 48.179688 242.59375 C 54.164062 244.640625 60.28125 245.148438 66.492188 244.511719 C 72.253906 243.925781 77.664062 242.074219 82.6875 239.15625 C 87.589844 236.3125 91.777344 232.65625 95.222656 228.15625 C 95.988281 227.160156 96.136719 227.140625 96.964844 227.96875 C 99.414062 230.421875 101.867188 232.871094 104.3125 235.320312 Z M 104.3125 235.320312 " fill-opacity="1" fill-rule="nonzero"/></g><g fill="#ffffff" fill-opacity="1"><g transform="translate(104.309602, 194.545732)"><g><path d="M 2.15625 -29.71875 L 12.796875 -29.71875 C 15.648438 -29.71875 17.976562 -28.957031 19.78125 -27.4375 C 21.582031 -25.914062 22.484375 -23.734375 22.484375 -20.890625 C 22.484375 -18.710938 21.9375 -16.882812 20.84375 -15.40625 C 19.75 -13.925781 18.265625 -12.882812 16.390625 -12.28125 L 26.625 0 L 18.015625 0 L 8.9375 -11.75 L 8.9375 0 L 2.15625 0 Z M 8.9375 -16.53125 L 9.734375 -16.53125 C 10.359375 -16.53125 10.882812 -16.539062 11.3125 -16.5625 C 11.75 -16.59375 12.242188 -16.679688 12.796875 -16.828125 C 13.347656 -16.972656 13.789062 -17.175781 14.125 -17.4375 C 14.457031 -17.695312 14.742188 -18.078125 14.984375 -18.578125 C 15.222656 -19.085938 15.34375 -19.703125 15.34375 -20.421875 C 15.34375 -21.148438 15.222656 -21.765625 14.984375 -22.265625 C 14.742188 -22.773438 14.457031 -23.160156 14.125 -23.421875 C 13.789062 -23.679688 13.347656 -23.882812 12.796875 -24.03125 C 12.242188 -24.175781 11.75 -24.257812 11.3125 -24.28125 C 10.882812 -24.3125 10.359375 -24.328125 9.734375 -24.328125 L 8.9375 -24.328125 Z M 8.9375 -16.53125 "/></g></g></g><g fill="#ffffff" fill-opacity="1"><g transform="translate(130.900462, 194.545732)"><g><path d="M 19.171875 -29.71875 L 19.171875 -23.78125 L 8.9375 -23.78125 L 8.9375 -17.875 L 18.734375 -17.875 L 18.734375 -11.921875 L 8.9375 -11.921875 L 8.9375 -5.9375 L 19.171875 -5.9375 L 19.171875 0 L 2.15625 0 L 2.15625 -29.71875 Z M 19.171875 -29.71875 "/></g></g></g><g fill="#ffffff" fill-opacity="1"><g transform="translate(152.591153, 194.545732)"><g><path d="M 19.34375 -29.71875 L 19.34375 -23.78125 L 8.9375 -23.78125 L 8.9375 -17.875 L 18.5625 -17.875 L 18.5625 -11.921875 L 8.9375 -11.921875 L 8.9375 0 L 2.15625 0 L 2.15625 -29.71875 Z M 19.34375 -29.71875 "/></g></g></g><g fill="#ffffff" fill-opacity="1"><g transform="translate(173.813447, 194.545732)"><g><path d="M 2.15625 -29.71875 L 12.796875 -29.71875 C 15.648438 -29.71875 17.976562 -28.957031 19.78125 -27.4375 C 21.582031 -25.914062 22.484375 -23.734375 22.484375 -20.890625 C 22.484375 -18.710938 21.9375 -16.882812 20.84375 -15.40625 C 19.75 -13.925781 18.265625 -12.882812 16.390625 -12.28125 L 26.625 0 L 18.015625 0 L 8.9375 -11.75 L 8.9375 0 L 2.15625 0 Z M 8.9375 -16.53125 L 9.734375 -16.53125 C 10.359375 -16.53125 10.882812 -16.539062 11.3125 -16.5625 C 11.75 -16.59375 12.242188 -16.679688 12.796875 -16.828125 C 13.347656 -16.972656 13.789062 -17.175781 14.125 -17.4375 C 14.457031 -17.695312 14.742188 -18.078125 14.984375 -18.578125 C 15.222656 -19.085938 15.34375 -19.703125 15.34375 -20.421875 C 15.34375 -21.148438 15.222656 -21.765625 14.984375 -22.265625 C 14.742188 -22.773438 14.457031 -23.160156 14.125 -23.421875 C 13.789062 -23.679688 13.347656 -23.882812 12.796875 -24.03125 C 12.242188 -24.175781 11.75 -24.257812 11.3125 -24.28125 C 10.882812 -24.3125 10.359375 -24.328125 9.734375 -24.328125 L 8.9375 -24.328125 Z M 8.9375 -16.53125 "/></g></g></g><g fill="#ffffff" fill-opacity="1"><g transform="translate(200.404306, 194.545732)"><g><path d="M 17.265625 -29.71875 L 29.25 0 L 21.984375 0 L 19.78125 -5.9375 L 8.46875 -5.9375 L 6.265625 0 L -1.015625 0 L 10.984375 -29.71875 Z M 17.46875 -11.890625 L 14.15625 -20.53125 L 14.09375 -20.53125 L 10.765625 -11.890625 Z M 17.46875 -11.890625 "/></g></g></g><g fill="#ffffff" fill-opacity="1"><g transform="translate(229.445249, 194.545732)"><g><path d="M 8.9375 -18.453125 L 8.9375 0 L 2.15625 0 L 2.15625 -29.71875 L 8.9375 -29.71875 L 20.75 -11.28125 L 20.828125 -11.28125 L 20.828125 -29.71875 L 27.59375 -29.71875 L 27.59375 0 L 20.828125 0 L 9 -18.453125 Z M 8.9375 -18.453125 "/></g></g></g><g fill="#ffffff" fill-opacity="1"><g transform="translate(259.99949, 194.545732)"><g><path d="M 17.984375 -6.125 C 19.015625 -6.125 20.015625 -6.28125 20.984375 -6.59375 C 21.960938 -6.90625 22.675781 -7.207031 23.125 -7.5 L 23.8125 -7.96875 L 26.703125 -2.203125 C 26.609375 -2.128906 26.472656 -2.03125 26.296875 -1.90625 C 26.128906 -1.789062 25.738281 -1.566406 25.125 -1.234375 C 24.519531 -0.910156 23.867188 -0.628906 23.171875 -0.390625 C 22.472656 -0.148438 21.554688 0.0625 20.421875 0.25 C 19.296875 0.445312 18.132812 0.546875 16.9375 0.546875 C 14.175781 0.546875 11.554688 -0.128906 9.078125 -1.484375 C 6.609375 -2.847656 4.613281 -4.71875 3.09375 -7.09375 C 1.582031 -9.476562 0.828125 -12.050781 0.828125 -14.8125 C 0.828125 -16.894531 1.269531 -18.894531 2.15625 -20.8125 C 3.050781 -22.738281 4.234375 -24.382812 5.703125 -25.75 C 7.179688 -27.125 8.90625 -28.21875 10.875 -29.03125 C 12.851562 -29.851562 14.875 -30.265625 16.9375 -30.265625 C 18.851562 -30.265625 20.625 -30.035156 22.25 -29.578125 C 23.875 -29.117188 25.019531 -28.664062 25.6875 -28.21875 L 26.703125 -27.53125 L 23.8125 -21.765625 C 23.644531 -21.910156 23.394531 -22.082031 23.0625 -22.28125 C 22.726562 -22.488281 22.054688 -22.757812 21.046875 -23.09375 C 20.035156 -23.425781 19.015625 -23.59375 17.984375 -23.59375 C 16.347656 -23.59375 14.878906 -23.328125 13.578125 -22.796875 C 12.285156 -22.273438 11.257812 -21.582031 10.5 -20.71875 C 9.75 -19.851562 9.171875 -18.921875 8.765625 -17.921875 C 8.367188 -16.929688 8.171875 -15.914062 8.171875 -14.875 C 8.171875 -12.625 9.019531 -10.601562 10.71875 -8.8125 C 12.414062 -7.019531 14.835938 -6.125 17.984375 -6.125 Z M 17.984375 -6.125 "/></g></g></g><g fill="#ffffff" fill-opacity="1"><g transform="translate(287.923472, 194.545732)"><g><path d="M 8.9375 -29.71875 L 8.9375 0 L 2.15625 0 L 2.15625 -29.71875 Z M 8.9375 -29.71875 "/></g></g></g><g fill="#ffffff" fill-opacity="1"><g transform="translate(299.813819, 194.545732)"><g><path d="M 13.109375 -30.265625 C 14.722656 -30.265625 16.296875 -30.03125 17.828125 -29.5625 C 19.367188 -29.09375 20.515625 -28.628906 21.265625 -28.171875 L 22.34375 -27.453125 L 19.59375 -22.046875 C 19.382812 -22.191406 19.085938 -22.378906 18.703125 -22.609375 C 18.316406 -22.835938 17.59375 -23.144531 16.53125 -23.53125 C 15.476562 -23.914062 14.492188 -24.109375 13.578125 -24.109375 C 12.453125 -24.109375 11.582031 -23.863281 10.96875 -23.375 C 10.351562 -22.894531 10.046875 -22.25 10.046875 -21.4375 C 10.046875 -21.03125 10.191406 -20.648438 10.484375 -20.296875 C 10.773438 -19.953125 11.265625 -19.582031 11.953125 -19.1875 C 12.648438 -18.789062 13.265625 -18.472656 13.796875 -18.234375 C 14.328125 -17.992188 15.144531 -17.632812 16.25 -17.15625 C 18.164062 -16.332031 19.800781 -15.21875 21.15625 -13.8125 C 22.519531 -12.40625 23.203125 -10.816406 23.203125 -9.046875 C 23.203125 -7.335938 22.894531 -5.847656 22.28125 -4.578125 C 21.664062 -3.304688 20.820312 -2.304688 19.75 -1.578125 C 18.6875 -0.859375 17.503906 -0.328125 16.203125 0.015625 C 14.910156 0.367188 13.507812 0.546875 12 0.546875 C 10.695312 0.546875 9.421875 0.410156 8.171875 0.140625 C 6.929688 -0.117188 5.890625 -0.445312 5.046875 -0.84375 C 4.203125 -1.238281 3.441406 -1.628906 2.765625 -2.015625 C 2.097656 -2.398438 1.609375 -2.722656 1.296875 -2.984375 L 0.828125 -3.390625 L 4.21875 -9.078125 C 4.5 -8.835938 4.890625 -8.53125 5.390625 -8.15625 C 5.898438 -7.789062 6.796875 -7.296875 8.078125 -6.671875 C 9.367188 -6.046875 10.507812 -5.734375 11.5 -5.734375 C 14.351562 -5.734375 15.78125 -6.703125 15.78125 -8.640625 C 15.78125 -9.054688 15.675781 -9.4375 15.46875 -9.78125 C 15.269531 -10.132812 14.910156 -10.484375 14.390625 -10.828125 C 13.878906 -11.171875 13.425781 -11.445312 13.03125 -11.65625 C 12.632812 -11.863281 11.984375 -12.175781 11.078125 -12.59375 C 10.179688 -13.007812 9.515625 -13.328125 9.078125 -13.546875 C 7.273438 -14.429688 5.878906 -15.539062 4.890625 -16.875 C 3.910156 -18.207031 3.421875 -19.644531 3.421875 -21.1875 C 3.421875 -23.851562 4.40625 -26.03125 6.375 -27.71875 C 8.34375 -29.414062 10.585938 -30.265625 13.109375 -30.265625 Z M 13.109375 -30.265625 "/></g></g></g><g fill="#ffffff" fill-opacity="1"><g transform="translate(324.819334, 194.545732)"><g><path d="M 0.828125 -14.875 C 0.828125 -19.175781 2.289062 -22.816406 5.21875 -25.796875 C 8.15625 -28.773438 11.6875 -30.265625 15.8125 -30.265625 C 19.96875 -30.265625 23.5 -28.78125 26.40625 -25.8125 C 29.3125 -22.84375 30.765625 -19.195312 30.765625 -14.875 C 30.765625 -10.53125 29.332031 -6.875 26.46875 -3.90625 C 23.613281 -0.9375 20.0625 0.546875 15.8125 0.546875 C 11.46875 0.546875 7.882812 -0.921875 5.0625 -3.859375 C 2.238281 -6.804688 0.828125 -10.476562 0.828125 -14.875 Z M 8.140625 -14.875 C 8.140625 -13.3125 8.378906 -11.890625 8.859375 -10.609375 C 9.335938 -9.328125 10.175781 -8.238281 11.375 -7.34375 C 12.582031 -6.457031 14.0625 -6.015625 15.8125 -6.015625 C 18.332031 -6.015625 20.234375 -6.878906 21.515625 -8.609375 C 22.804688 -10.335938 23.453125 -12.425781 23.453125 -14.875 C 23.453125 -17.300781 22.796875 -19.382812 21.484375 -21.125 C 20.179688 -22.875 18.289062 -23.75 15.8125 -23.75 C 13.363281 -23.75 11.472656 -22.875 10.140625 -21.125 C 8.804688 -19.382812 8.140625 -17.300781 8.140625 -14.875 Z M 8.140625 -14.875 "/></g></g></g><g fill="#ffffff" fill-opacity="1"><g transform="translate(104.309602, 232.070001)"><g><path d="M 17.984375 -6.125 C 19.015625 -6.125 20.015625 -6.28125 20.984375 -6.59375 C 21.960938 -6.90625 22.675781 -7.207031 23.125 -7.5 L 23.8125 -7.96875 L 26.703125 -2.203125 C 26.609375 -2.128906 26.472656 -2.03125 26.296875 -1.90625 C 26.128906 -1.789062 25.738281 -1.566406 25.125 -1.234375 C 24.519531 -0.910156 23.867188 -0.628906 23.171875 -0.390625 C 22.472656 -0.148438 21.554688 0.0625 20.421875 0.25 C 19.296875 0.445312 18.132812 0.546875 16.9375 0.546875 C 14.175781 0.546875 11.554688 -0.128906 9.078125 -1.484375 C 6.609375 -2.847656 4.613281 -4.71875 3.09375 -7.09375 C 1.582031 -9.476562 0.828125 -12.050781 0.828125 -14.8125 C 0.828125 -16.894531 1.269531 -18.894531 2.15625 -20.8125 C 3.050781 -22.738281 4.234375 -24.382812 5.703125 -25.75 C 7.179688 -27.125 8.90625 -28.21875 10.875 -29.03125 C 12.851562 -29.851562 14.875 -30.265625 16.9375 -30.265625 C 18.851562 -30.265625 20.625 -30.035156 22.25 -29.578125 C 23.875 -29.117188 25.019531 -28.664062 25.6875 -28.21875 L 26.703125 -27.53125 L 23.8125 -21.765625 C 23.644531 -21.910156 23.394531 -22.082031 23.0625 -22.28125 C 22.726562 -22.488281 22.054688 -22.757812 21.046875 -23.09375 C 20.035156 -23.425781 19.015625 -23.59375 17.984375 -23.59375 C 16.347656 -23.59375 14.878906 -23.328125 13.578125 -22.796875 C 12.285156 -22.273438 11.257812 -21.582031 10.5 -20.71875 C 9.75 -19.851562 9.171875 -18.921875 8.765625 -17.921875 C 8.367188 -16.929688 8.171875 -15.914062 8.171875 -14.875 C 8.171875 -12.625 9.019531 -10.601562 10.71875 -8.8125 C 12.414062 -7.019531 14.835938 -6.125 17.984375 -6.125 Z M 17.984375 -6.125 "/></g></g></g><g fill="#ffffff" fill-opacity="1"><g transform="translate(131.801087, 232.070001)"><g><path d="M 0.828125 -14.875 C 0.828125 -19.175781 2.289062 -22.816406 5.21875 -25.796875 C 8.15625 -28.773438 11.6875 -30.265625 15.8125 -30.265625 C 19.96875 -30.265625 23.5 -28.78125 26.40625 -25.8125 C 29.3125 -22.84375 30.765625 -19.195312 30.765625 -14.875 C 30.765625 -10.53125 29.332031 -6.875 26.46875 -3.90625 C 23.613281 -0.9375 20.0625 0.546875 15.8125 0.546875 C 11.46875 0.546875 7.882812 -0.921875 5.0625 -3.859375 C 2.238281 -6.804688 0.828125 -10.476562 0.828125 -14.875 Z M 8.140625 -14.875 C 8.140625 -13.3125 8.378906 -11.890625 8.859375 -10.609375 C 9.335938 -9.328125 10.175781 -8.238281 11.375 -7.34375 C 12.582031 -6.457031 14.0625 -6.015625 15.8125 -6.015625 C 18.332031 -6.015625 20.234375 -6.878906 21.515625 -8.609375 C 22.804688 -10.335938 23.453125 -12.425781 23.453125 -14.875 C 23.453125 -17.300781 22.796875 -19.382812 21.484375 -21.125 C 20.179688 -22.875 18.289062 -23.75 15.8125 -23.75 C 13.363281 -23.75 11.472656 -22.875 10.140625 -21.125 C 8.804688 -19.382812 8.140625 -17.300781 8.140625 -14.875 Z M 8.140625 -14.875 "/></g></g></g><g fill="#ffffff" fill-opacity="1"><g transform="translate(163.760388, 232.070001)"><g><path d="M 8.9375 -18.453125 L 8.9375 0 L 2.15625 0 L 2.15625 -29.71875 L 8.9375 -29.71875 L 20.75 -11.28125 L 20.828125 -11.28125 L 20.828125 -29.71875 L 27.59375 -29.71875 L 27.59375 0 L 20.828125 0 L 9 -18.453125 Z M 8.9375 -18.453125 "/></g></g></g><g fill="#ffffff" fill-opacity="1"><g transform="translate(193.882128, 232.070001)"><g><path d="M 13.109375 -30.265625 C 14.722656 -30.265625 16.296875 -30.03125 17.828125 -29.5625 C 19.367188 -29.09375 20.515625 -28.628906 21.265625 -28.171875 L 22.34375 -27.453125 L 19.59375 -22.046875 C 19.382812 -22.191406 19.085938 -22.378906 18.703125 -22.609375 C 18.316406 -22.835938 17.59375 -23.144531 16.53125 -23.53125 C 15.476562 -23.914062 14.492188 -24.109375 13.578125 -24.109375 C 12.453125 -24.109375 11.582031 -23.863281 10.96875 -23.375 C 10.351562 -22.894531 10.046875 -22.25 10.046875 -21.4375 C 10.046875 -21.03125 10.191406 -20.648438 10.484375 -20.296875 C 10.773438 -19.953125 11.265625 -19.582031 11.953125 -19.1875 C 12.648438 -18.789062 13.265625 -18.472656 13.796875 -18.234375 C 14.328125 -17.992188 15.144531 -17.632812 16.25 -17.15625 C 18.164062 -16.332031 19.800781 -15.21875 21.15625 -13.8125 C 22.519531 -12.40625 23.203125 -10.816406 23.203125 -9.046875 C 23.203125 -7.335938 22.894531 -5.847656 22.28125 -4.578125 C 21.664062 -3.304688 20.820312 -2.304688 19.75 -1.578125 C 18.6875 -0.859375 17.503906 -0.328125 16.203125 0.015625 C 14.910156 0.367188 13.507812 0.546875 12 0.546875 C 10.695312 0.546875 9.421875 0.410156 8.171875 0.140625 C 6.929688 -0.117188 5.890625 -0.445312 5.046875 -0.84375 C 4.203125 -1.238281 3.441406 -1.628906 2.765625 -2.015625 C 2.097656 -2.398438 1.609375 -2.722656 1.296875 -2.984375 L 0.828125 -3.390625 L 4.21875 -9.078125 C 4.5 -8.835938 4.890625 -8.53125 5.390625 -8.15625 C 5.898438 -7.789062 6.796875 -7.296875 8.078125 -6.671875 C 9.367188 -6.046875 10.507812 -5.734375 11.5 -5.734375 C 14.351562 -5.734375 15.78125 -6.703125 15.78125 -8.640625 C 15.78125 -9.054688 15.675781 -9.4375 15.46875 -9.78125 C 15.269531 -10.132812 14.910156 -10.484375 14.390625 -10.828125 C 13.878906 -11.171875 13.425781 -11.445312 13.03125 -11.65625 C 12.632812 -11.863281 11.984375 -12.175781 11.078125 -12.59375 C 10.179688 -13.007812 9.515625 -13.328125 9.078125 -13.546875 C 7.273438 -14.429688 5.878906 -15.539062 4.890625 -16.875 C 3.910156 -18.207031 3.421875 -19.644531 3.421875 -21.1875 C 3.421875 -23.851562 4.40625 -26.03125 6.375 -27.71875 C 8.34375 -29.414062 10.585938 -30.265625 13.109375 -30.265625 Z M 13.109375 -30.265625 "/></g></g></g><g fill="#ffffff" fill-opacity="1"><g transform="translate(218.455144, 232.070001)"><g><path d="M 25 -29.71875 L 25 -10.5625 C 25 -6.90625 24.015625 -4.140625 22.046875 -2.265625 C 20.078125 -0.390625 17.191406 0.546875 13.390625 0.546875 C 9.597656 0.546875 6.71875 -0.390625 4.75 -2.265625 C 2.78125 -4.140625 1.796875 -6.90625 1.796875 -10.5625 L 1.796875 -29.71875 L 8.578125 -29.71875 L 8.578125 -12.53125 C 8.578125 -10.132812 8.953125 -8.46875 9.703125 -7.53125 C 10.460938 -6.59375 11.695312 -6.125 13.40625 -6.125 C 15.113281 -6.125 16.34375 -6.59375 17.09375 -7.53125 C 17.851562 -8.46875 18.234375 -10.132812 18.234375 -12.53125 L 18.234375 -29.71875 Z M 25 -29.71875 "/></g></g></g><g fill="#ffffff" fill-opacity="1"><g transform="translate(245.622362, 232.070001)"><g><path d="M 8.9375 -29.71875 L 8.9375 -5.9375 L 19.171875 -5.9375 L 19.171875 0 L 2.15625 0 L 2.15625 -29.71875 Z M 8.9375 -29.71875 "/></g></g></g><g fill="#ffffff" fill-opacity="1"><g transform="translate(266.340085, 232.070001)"><g><path d="M 0.28125 -23.78125 L 0.28125 -29.71875 L 21.1875 -29.71875 L 21.1875 -23.78125 L 14.125 -23.78125 L 14.125 0 L 7.34375 0 L 7.34375 -23.78125 Z M 0.28125 -23.78125 "/></g></g></g><g fill="#ffffff" fill-opacity="1"><g transform="translate(288.17477, 232.070001)"><g><path d="M 8.9375 -29.71875 L 8.9375 0 L 2.15625 0 L 2.15625 -29.71875 Z M 8.9375 -29.71875 "/></g></g></g><g fill="#ffffff" fill-opacity="1"><g transform="translate(299.632619, 232.070001)"><g><path d="M 8.9375 -18.453125 L 8.9375 0 L 2.15625 0 L 2.15625 -29.71875 L 8.9375 -29.71875 L 20.75 -11.28125 L 20.828125 -11.28125 L 20.828125 -29.71875 L 27.59375 -29.71875 L 27.59375 0 L 20.828125 0 L 9 -18.453125 Z M 8.9375 -18.453125 "/></g></g></g><g fill="#ffffff" fill-opacity="1"><g transform="translate(329.754355, 232.070001)"><g><path d="M 29.046875 -16.640625 L 29.046875 -10.203125 C 28.273438 -6.671875 26.59375 -3.992188 24 -2.171875 C 21.40625 -0.359375 18.507812 0.546875 15.3125 0.546875 C 11.300781 0.546875 7.882812 -0.953125 5.0625 -3.953125 C 2.238281 -6.960938 0.828125 -10.59375 0.828125 -14.84375 C 0.828125 -19.164062 2.207031 -22.816406 4.96875 -25.796875 C 7.726562 -28.773438 11.175781 -30.265625 15.3125 -30.265625 C 20.144531 -30.265625 23.960938 -28.570312 26.765625 -25.1875 L 22.34375 -20.328125 C 20.757812 -22.867188 18.546875 -24.140625 15.703125 -24.140625 C 13.617188 -24.140625 11.835938 -23.234375 10.359375 -21.421875 C 8.878906 -19.609375 8.140625 -17.414062 8.140625 -14.84375 C 8.140625 -12.320312 8.878906 -10.164062 10.359375 -8.375 C 11.835938 -6.582031 13.617188 -5.6875 15.703125 -5.6875 C 17.429688 -5.6875 18.9375 -6.207031 20.21875 -7.25 C 21.507812 -8.300781 22.15625 -9.691406 22.15625 -11.421875 L 15.3125 -11.421875 L 15.3125 -16.640625 Z M 29.046875 -16.640625 "/></g></g></g></svg>