<svg xmlns="http://www.w3.org/2000/svg" xmlns:xlink="http://www.w3.org/1999/xlink" width="500" zoomAndPan="magnify" viewBox="0 0 375 374.999991" height="500" preserveAspectRatio="xMidYMid meet" version="1.0"><defs><g/><clipPath id="d4f5ffe90f"><path d="M 13 116.5625 L 109 116.5625 L 109 229 L 13 229 Z M 13 116.5625 " clip-rule="nonzero"/></clipPath><clipPath id="4fc6c2eeb4"><path d="M 13 147 L 111.953125 147 L 111.953125 258 L 13 258 Z M 13 147 " clip-rule="nonzero"/></clipPath></defs><g clip-path="url(#d4f5ffe90f)"><path fill="#000000" d="M 13.714844 166.949219 C 13.675781 166.550781 13.609375 166.152344 13.609375 165.75 C 13.601562 149.84375 13.609375 133.933594 13.578125 118.027344 C 13.574219 116.933594 13.945312 116.65625 14.984375 116.65625 C 32.410156 116.683594 49.835938 116.6875 67.261719 116.671875 C 76.355469 116.660156 84.601562 119.285156 91.898438 124.714844 C 97.929688 129.207031 102.40625 134.953125 105.351562 141.914062 C 108.15625 148.546875 109.089844 155.460938 108.277344 162.542969 C 107.097656 172.808594 102.605469 181.492188 94.957031 188.464844 C 90.605469 192.429688 85.632812 195.355469 79.984375 197.058594 C 78.640625 197.464844 77.265625 197.765625 75.914062 198.140625 C 75.484375 198.257812 75.082031 198.445312 74.3125 198.734375 C 76.015625 200.363281 77.554688 201.785156 79.035156 203.269531 C 84.46875 208.695312 89.867188 214.160156 95.332031 219.554688 C 96.105469 220.320312 96.125 220.851562 95.519531 221.667969 C 93.699219 224.105469 91.699219 226.359375 89.34375 228.308594 C 88.515625 228.996094 88.011719 228.878906 87.308594 228.171875 C 76.007812 216.808594 64.6875 205.464844 53.371094 194.117188 C 51.507812 192.246094 49.652344 190.367188 47.777344 188.507812 C 47.511719 188.242188 47.164062 188.066406 46.851562 187.84375 C 46.925781 187.710938 47.003906 187.578125 47.078125 187.445312 C 47.507812 187.417969 47.9375 187.363281 48.367188 187.363281 C 54.398438 187.359375 60.429688 187.300781 66.460938 187.375 C 72.773438 187.453125 78.582031 185.859375 83.816406 182.328125 C 89.5 178.488281 93.425781 173.265625 95.519531 166.738281 C 97.039062 162.023438 97.234375 157.183594 96.3125 152.296875 C 94.957031 145.089844 91.328125 139.261719 85.644531 134.714844 C 82.046875 131.835938 78.007812 129.796875 73.4375 129.03125 C 71.226562 128.660156 68.964844 128.390625 66.726562 128.378906 C 53.394531 128.316406 40.0625 128.347656 26.730469 128.347656 C 25.324219 128.347656 25.292969 128.371094 25.292969 129.753906 C 25.289062 137.421875 25.304688 145.097656 25.265625 152.765625 C 25.265625 153.304688 25.082031 154.023438 24.71875 154.363281 C 20.636719 158.140625 17.066406 162.339844 13.714844 166.949219 Z M 13.714844 166.949219 " fill-opacity="1" fill-rule="nonzero"/></g><g clip-path="url(#4fc6c2eeb4)"><path fill="#000000" d="M 111.964844 236.261719 L 101.441406 246.59375 L 101.433594 246.601562 C 96.835938 250.117188 91.757812 252.78125 86.269531 254.699219 C 78.589844 257.375 70.648438 258.21875 62.621094 257.328125 C 49.226562 255.84375 37.800781 250.167969 28.5 240.332031 C 23.347656 234.886719 19.480469 228.617188 16.933594 221.574219 C 14.15625 213.910156 12.953125 205.976562 13.800781 197.839844 C 15.695312 179.667969 24.375 165.609375 39.71875 155.75 C 44.082031 152.945312 48.851562 150.972656 53.882812 149.609375 C 59.40625 148.117188 65 147.402344 70.707031 147.644531 C 75.226562 147.832031 79.652344 148.644531 84.019531 149.816406 C 85.441406 150.199219 85.636719 151.378906 85.953125 152.472656 C 86.929688 155.898438 87.058594 159.34375 85.980469 162.929688 C 84.34375 162.367188 82.824219 161.691406 81.234375 161.324219 C 78.054688 160.589844 74.863281 159.796875 71.628906 159.441406 C 67.191406 158.949219 62.734375 159.378906 58.410156 160.488281 C 48.238281 163.097656 39.929688 168.5625 33.652344 177.070312 C 30.695312 181.078125 28.46875 185.453125 27.0625 190.222656 C 25.285156 196.257812 24.816406 202.398438 25.710938 208.660156 C 27.242188 219.421875 32.199219 228.304688 40.304688 235.425781 C 44.542969 239.15625 49.40625 241.847656 54.78125 243.691406 C 60.875 245.78125 67.109375 246.300781 73.433594 245.652344 C 79.304688 245.050781 84.816406 243.160156 89.933594 240.183594 C 94.925781 237.277344 99.191406 233.542969 102.703125 228.949219 C 103.484375 227.933594 103.632812 227.914062 104.476562 228.757812 C 106.972656 231.261719 109.46875 233.765625 111.964844 236.261719 Z M 111.964844 236.261719 " fill-opacity="1" fill-rule="nonzero"/></g><g fill="#000000" fill-opacity="1"><g transform="translate(112.268515, 187.340547)"><g><path d="M 1.953125 -26.9375 L 11.59375 -26.9375 C 14.1875 -26.9375 16.296875 -26.242188 17.921875 -24.859375 C 19.554688 -23.484375 20.375 -21.507812 20.375 -18.9375 C 20.375 -16.957031 19.878906 -15.296875 18.890625 -13.953125 C 17.898438 -12.617188 16.554688 -11.679688 14.859375 -11.140625 L 24.140625 0 L 16.328125 0 L 8.09375 -10.640625 L 8.09375 0 L 1.953125 0 Z M 8.09375 -14.984375 L 8.8125 -14.984375 C 9.382812 -14.984375 9.863281 -14.992188 10.25 -15.015625 C 10.644531 -15.035156 11.09375 -15.113281 11.59375 -15.25 C 12.09375 -15.382812 12.492188 -15.570312 12.796875 -15.8125 C 13.109375 -16.050781 13.367188 -16.394531 13.578125 -16.84375 C 13.796875 -17.300781 13.90625 -17.859375 13.90625 -18.515625 C 13.90625 -19.171875 13.796875 -19.726562 13.578125 -20.1875 C 13.367188 -20.644531 13.109375 -20.988281 12.796875 -21.21875 C 12.492188 -21.457031 12.09375 -21.644531 11.59375 -21.78125 C 11.09375 -21.914062 10.644531 -21.992188 10.25 -22.015625 C 9.863281 -22.035156 9.382812 -22.046875 8.8125 -22.046875 L 8.09375 -22.046875 Z M 8.09375 -14.984375 "/></g></g></g><g fill="#000000" fill-opacity="1"><g transform="translate(136.366083, 187.340547)"><g><path d="M 17.375 -26.9375 L 17.375 -21.546875 L 8.09375 -21.546875 L 8.09375 -16.203125 L 16.984375 -16.203125 L 16.984375 -10.8125 L 8.09375 -10.8125 L 8.09375 -5.390625 L 17.375 -5.390625 L 17.375 0 L 1.953125 0 L 1.953125 -26.9375 Z M 17.375 -26.9375 "/></g></g></g><g fill="#000000" fill-opacity="1"><g transform="translate(156.022945, 187.340547)"><g><path d="M 17.53125 -26.9375 L 17.53125 -21.546875 L 8.09375 -21.546875 L 8.09375 -16.203125 L 16.8125 -16.203125 L 16.8125 -10.8125 L 8.09375 -10.8125 L 8.09375 0 L 1.953125 0 L 1.953125 -26.9375 Z M 17.53125 -26.9375 "/></g></g></g><g fill="#000000" fill-opacity="1"><g transform="translate(175.255331, 187.340547)"><g><path d="M 1.953125 -26.9375 L 11.59375 -26.9375 C 14.1875 -26.9375 16.296875 -26.242188 17.921875 -24.859375 C 19.554688 -23.484375 20.375 -21.507812 20.375 -18.9375 C 20.375 -16.957031 19.878906 -15.296875 18.890625 -13.953125 C 17.898438 -12.617188 16.554688 -11.679688 14.859375 -11.140625 L 24.140625 0 L 16.328125 0 L 8.09375 -10.640625 L 8.09375 0 L 1.953125 0 Z M 8.09375 -14.984375 L 8.8125 -14.984375 C 9.382812 -14.984375 9.863281 -14.992188 10.25 -15.015625 C 10.644531 -15.035156 11.09375 -15.113281 11.59375 -15.25 C 12.09375 -15.382812 12.492188 -15.570312 12.796875 -15.8125 C 13.109375 -16.050781 13.367188 -16.394531 13.578125 -16.84375 C 13.796875 -17.300781 13.90625 -17.859375 13.90625 -18.515625 C 13.90625 -19.171875 13.796875 -19.726562 13.578125 -20.1875 C 13.367188 -20.644531 13.109375 -20.988281 12.796875 -21.21875 C 12.492188 -21.457031 12.09375 -21.644531 11.59375 -21.78125 C 11.09375 -21.914062 10.644531 -21.992188 10.25 -22.015625 C 9.863281 -22.035156 9.382812 -22.046875 8.8125 -22.046875 L 8.09375 -22.046875 Z M 8.09375 -14.984375 "/></g></g></g><g fill="#000000" fill-opacity="1"><g transform="translate(199.352897, 187.340547)"><g><path d="M 15.640625 -26.9375 L 26.515625 0 L 19.921875 0 L 17.921875 -5.390625 L 7.671875 -5.390625 L 5.6875 0 L -0.921875 0 L 9.953125 -26.9375 Z M 15.84375 -10.78125 L 12.828125 -18.609375 L 12.765625 -18.609375 L 9.765625 -10.78125 Z M 15.84375 -10.78125 "/></g></g></g><g fill="#000000" fill-opacity="1"><g transform="translate(225.670816, 187.340547)"><g><path d="M 8.09375 -16.71875 L 8.09375 0 L 1.953125 0 L 1.953125 -26.9375 L 8.09375 -26.9375 L 18.8125 -10.21875 L 18.875 -10.21875 L 18.875 -26.9375 L 25.015625 -26.9375 L 25.015625 0 L 18.875 0 L 8.15625 -16.71875 Z M 8.09375 -16.71875 "/></g></g></g><g fill="#000000" fill-opacity="1"><g transform="translate(253.360138, 187.340547)"><g><path d="M 16.296875 -5.546875 C 17.234375 -5.546875 18.140625 -5.6875 19.015625 -5.96875 C 19.898438 -6.257812 20.550781 -6.535156 20.96875 -6.796875 L 21.578125 -7.21875 L 24.203125 -1.984375 C 24.109375 -1.921875 23.984375 -1.832031 23.828125 -1.71875 C 23.679688 -1.613281 23.328125 -1.414062 22.765625 -1.125 C 22.210938 -0.832031 21.617188 -0.578125 20.984375 -0.359375 C 20.359375 -0.140625 19.535156 0.0507812 18.515625 0.21875 C 17.492188 0.394531 16.4375 0.484375 15.34375 0.484375 C 12.84375 0.484375 10.46875 -0.128906 8.21875 -1.359375 C 5.976562 -2.585938 4.171875 -4.28125 2.796875 -6.4375 C 1.429688 -8.59375 0.75 -10.921875 0.75 -13.421875 C 0.75 -15.316406 1.148438 -17.132812 1.953125 -18.875 C 2.765625 -20.613281 3.835938 -22.101562 5.171875 -23.34375 C 6.515625 -24.582031 8.078125 -25.570312 9.859375 -26.3125 C 11.648438 -27.0625 13.476562 -27.4375 15.34375 -27.4375 C 17.082031 -27.4375 18.6875 -27.226562 20.15625 -26.8125 C 21.632812 -26.394531 22.675781 -25.976562 23.28125 -25.5625 L 24.203125 -24.953125 L 21.578125 -19.71875 C 21.429688 -19.851562 21.203125 -20.007812 20.890625 -20.1875 C 20.585938 -20.375 19.976562 -20.617188 19.0625 -20.921875 C 18.15625 -21.234375 17.234375 -21.390625 16.296875 -21.390625 C 14.816406 -21.390625 13.488281 -21.148438 12.3125 -20.671875 C 11.132812 -20.191406 10.203125 -19.5625 9.515625 -18.78125 C 8.828125 -18 8.300781 -17.15625 7.9375 -16.25 C 7.582031 -15.34375 7.40625 -14.421875 7.40625 -13.484375 C 7.40625 -11.441406 8.171875 -9.609375 9.703125 -7.984375 C 11.242188 -6.359375 13.441406 -5.546875 16.296875 -5.546875 Z M 16.296875 -5.546875 "/></g></g></g><g fill="#000000" fill-opacity="1"><g transform="translate(278.665827, 187.340547)"><g><path d="M 8.09375 -26.9375 L 8.09375 0 L 1.953125 0 L 1.953125 -26.9375 Z M 8.09375 -26.9375 "/></g></g></g><g fill="#000000" fill-opacity="1"><g transform="translate(289.441276, 187.340547)"><g><path d="M 11.890625 -27.4375 C 13.347656 -27.4375 14.769531 -27.222656 16.15625 -26.796875 C 17.550781 -26.367188 18.585938 -25.945312 19.265625 -25.53125 L 20.25 -24.890625 L 17.765625 -19.984375 C 17.566406 -20.117188 17.289062 -20.285156 16.9375 -20.484375 C 16.59375 -20.691406 15.941406 -20.96875 14.984375 -21.3125 C 14.023438 -21.664062 13.132812 -21.84375 12.3125 -21.84375 C 11.289062 -21.84375 10.5 -21.625 9.9375 -21.1875 C 9.382812 -20.757812 9.109375 -20.175781 9.109375 -19.4375 C 9.109375 -19.0625 9.238281 -18.710938 9.5 -18.390625 C 9.757812 -18.078125 10.203125 -17.738281 10.828125 -17.375 C 11.460938 -17.019531 12.019531 -16.734375 12.5 -16.515625 C 12.976562 -16.304688 13.722656 -15.984375 14.734375 -15.546875 C 16.472656 -14.804688 17.957031 -13.796875 19.1875 -12.515625 C 20.414062 -11.242188 21.03125 -9.804688 21.03125 -8.203125 C 21.03125 -6.648438 20.75 -5.296875 20.1875 -4.140625 C 19.632812 -2.992188 18.875 -2.09375 17.90625 -1.4375 C 16.9375 -0.78125 15.863281 -0.296875 14.6875 0.015625 C 13.519531 0.328125 12.25 0.484375 10.875 0.484375 C 9.695312 0.484375 8.539062 0.363281 7.40625 0.125 C 6.28125 -0.113281 5.332031 -0.410156 4.5625 -0.765625 C 3.800781 -1.128906 3.113281 -1.484375 2.5 -1.828125 C 1.894531 -2.171875 1.453125 -2.460938 1.171875 -2.703125 L 0.75 -3.0625 L 3.828125 -8.234375 C 4.085938 -8.015625 4.441406 -7.734375 4.890625 -7.390625 C 5.347656 -7.054688 6.160156 -6.601562 7.328125 -6.03125 C 8.492188 -5.46875 9.523438 -5.1875 10.421875 -5.1875 C 13.003906 -5.1875 14.296875 -6.070312 14.296875 -7.84375 C 14.296875 -8.207031 14.203125 -8.546875 14.015625 -8.859375 C 13.835938 -9.179688 13.515625 -9.5 13.046875 -9.8125 C 12.578125 -10.125 12.160156 -10.375 11.796875 -10.5625 C 11.441406 -10.75 10.851562 -11.03125 10.03125 -11.40625 C 9.21875 -11.789062 8.617188 -12.082031 8.234375 -12.28125 C 6.597656 -13.082031 5.332031 -14.085938 4.4375 -15.296875 C 3.550781 -16.503906 3.109375 -17.804688 3.109375 -19.203125 C 3.109375 -21.617188 4 -23.59375 5.78125 -25.125 C 7.5625 -26.664062 9.597656 -27.4375 11.890625 -27.4375 Z M 11.890625 -27.4375 "/></g></g></g><g fill="#000000" fill-opacity="1"><g transform="translate(312.102148, 187.340547)"><g><path d="M 16.296875 -5.546875 C 17.234375 -5.546875 18.140625 -5.6875 19.015625 -5.96875 C 19.898438 -6.257812 20.550781 -6.535156 20.96875 -6.796875 L 21.578125 -7.21875 L 24.203125 -1.984375 C 24.109375 -1.921875 23.984375 -1.832031 23.828125 -1.71875 C 23.679688 -1.613281 23.328125 -1.414062 22.765625 -1.125 C 22.210938 -0.832031 21.617188 -0.578125 20.984375 -0.359375 C 20.359375 -0.140625 19.535156 0.0507812 18.515625 0.21875 C 17.492188 0.394531 16.4375 0.484375 15.34375 0.484375 C 12.84375 0.484375 10.46875 -0.128906 8.21875 -1.359375 C 5.976562 -2.585938 4.171875 -4.28125 2.796875 -6.4375 C 1.429688 -8.59375 0.75 -10.921875 0.75 -13.421875 C 0.75 -15.316406 1.148438 -17.132812 1.953125 -18.875 C 2.765625 -20.613281 3.835938 -22.101562 5.171875 -23.34375 C 6.515625 -24.582031 8.078125 -25.570312 9.859375 -26.3125 C 11.648438 -27.0625 13.476562 -27.4375 15.34375 -27.4375 C 17.082031 -27.4375 18.6875 -27.226562 20.15625 -26.8125 C 21.632812 -26.394531 22.675781 -25.976562 23.28125 -25.5625 L 24.203125 -24.953125 L 21.578125 -19.71875 C 21.429688 -19.851562 21.203125 -20.007812 20.890625 -20.1875 C 20.585938 -20.375 19.976562 -20.617188 19.0625 -20.921875 C 18.15625 -21.234375 17.234375 -21.390625 16.296875 -21.390625 C 14.816406 -21.390625 13.488281 -21.148438 12.3125 -20.671875 C 11.132812 -20.191406 10.203125 -19.5625 9.515625 -18.78125 C 8.828125 -18 8.300781 -17.15625 7.9375 -16.25 C 7.582031 -15.34375 7.40625 -14.421875 7.40625 -13.484375 C 7.40625 -11.441406 8.171875 -9.609375 9.703125 -7.984375 C 11.242188 -6.359375 13.441406 -5.546875 16.296875 -5.546875 Z M 16.296875 -5.546875 "/></g></g></g><g fill="#000000" fill-opacity="1"><g transform="translate(337.407837, 187.340547)"><g><path d="M 0.75 -13.484375 C 0.75 -17.378906 2.078125 -20.675781 4.734375 -23.375 C 7.390625 -26.082031 10.59375 -27.4375 14.34375 -27.4375 C 18.101562 -27.4375 21.300781 -26.085938 23.9375 -23.390625 C 26.570312 -20.703125 27.890625 -17.398438 27.890625 -13.484375 C 27.890625 -9.546875 26.59375 -6.234375 24 -3.546875 C 21.40625 -0.859375 18.1875 0.484375 14.34375 0.484375 C 10.394531 0.484375 7.140625 -0.847656 4.578125 -3.515625 C 2.023438 -6.179688 0.75 -9.503906 0.75 -13.484375 Z M 7.375 -13.484375 C 7.375 -12.066406 7.59375 -10.773438 8.03125 -9.609375 C 8.46875 -8.453125 9.226562 -7.46875 10.3125 -6.65625 C 11.40625 -5.851562 12.75 -5.453125 14.34375 -5.453125 C 16.625 -5.453125 18.347656 -6.234375 19.515625 -7.796875 C 20.679688 -9.367188 21.265625 -11.265625 21.265625 -13.484375 C 21.265625 -15.679688 20.671875 -17.566406 19.484375 -19.140625 C 18.296875 -20.722656 16.582031 -21.515625 14.34375 -21.515625 C 12.113281 -21.515625 10.394531 -20.722656 9.1875 -19.140625 C 7.976562 -17.566406 7.375 -15.679688 7.375 -13.484375 Z M 7.375 -13.484375 "/></g></g></g><g fill="#000000" fill-opacity="1"><g transform="translate(112.268515, 221.34638)"><g><path d="M 16.296875 -5.546875 C 17.234375 -5.546875 18.140625 -5.6875 19.015625 -5.96875 C 19.898438 -6.257812 20.550781 -6.535156 20.96875 -6.796875 L 21.578125 -7.21875 L 24.203125 -1.984375 C 24.109375 -1.921875 23.984375 -1.832031 23.828125 -1.71875 C 23.679688 -1.613281 23.328125 -1.414062 22.765625 -1.125 C 22.210938 -0.832031 21.617188 -0.578125 20.984375 -0.359375 C 20.359375 -0.140625 19.535156 0.0507812 18.515625 0.21875 C 17.492188 0.394531 16.4375 0.484375 15.34375 0.484375 C 12.84375 0.484375 10.46875 -0.128906 8.21875 -1.359375 C 5.976562 -2.585938 4.171875 -4.28125 2.796875 -6.4375 C 1.429688 -8.59375 0.75 -10.921875 0.75 -13.421875 C 0.75 -15.316406 1.148438 -17.132812 1.953125 -18.875 C 2.765625 -20.613281 3.835938 -22.101562 5.171875 -23.34375 C 6.515625 -24.582031 8.078125 -25.570312 9.859375 -26.3125 C 11.648438 -27.0625 13.476562 -27.4375 15.34375 -27.4375 C 17.082031 -27.4375 18.6875 -27.226562 20.15625 -26.8125 C 21.632812 -26.394531 22.675781 -25.976562 23.28125 -25.5625 L 24.203125 -24.953125 L 21.578125 -19.71875 C 21.429688 -19.851562 21.203125 -20.007812 20.890625 -20.1875 C 20.585938 -20.375 19.976562 -20.617188 19.0625 -20.921875 C 18.15625 -21.234375 17.234375 -21.390625 16.296875 -21.390625 C 14.816406 -21.390625 13.488281 -21.148438 12.3125 -20.671875 C 11.132812 -20.191406 10.203125 -19.5625 9.515625 -18.78125 C 8.828125 -18 8.300781 -17.15625 7.9375 -16.25 C 7.582031 -15.34375 7.40625 -14.421875 7.40625 -13.484375 C 7.40625 -11.441406 8.171875 -9.609375 9.703125 -7.984375 C 11.242188 -6.359375 13.441406 -5.546875 16.296875 -5.546875 Z M 16.296875 -5.546875 "/></g></g></g><g fill="#000000" fill-opacity="1"><g transform="translate(137.182261, 221.34638)"><g><path d="M 0.75 -13.484375 C 0.75 -17.378906 2.078125 -20.675781 4.734375 -23.375 C 7.390625 -26.082031 10.59375 -27.4375 14.34375 -27.4375 C 18.101562 -27.4375 21.300781 -26.085938 23.9375 -23.390625 C 26.570312 -20.703125 27.890625 -17.398438 27.890625 -13.484375 C 27.890625 -9.546875 26.59375 -6.234375 24 -3.546875 C 21.40625 -0.859375 18.1875 0.484375 14.34375 0.484375 C 10.394531 0.484375 7.140625 -0.847656 4.578125 -3.515625 C 2.023438 -6.179688 0.75 -9.503906 0.75 -13.484375 Z M 7.375 -13.484375 C 7.375 -12.066406 7.59375 -10.773438 8.03125 -9.609375 C 8.46875 -8.453125 9.226562 -7.46875 10.3125 -6.65625 C 11.40625 -5.851562 12.75 -5.453125 14.34375 -5.453125 C 16.625 -5.453125 18.347656 -6.234375 19.515625 -7.796875 C 20.679688 -9.367188 21.265625 -11.265625 21.265625 -13.484375 C 21.265625 -15.679688 20.671875 -17.566406 19.484375 -19.140625 C 18.296875 -20.722656 16.582031 -21.515625 14.34375 -21.515625 C 12.113281 -21.515625 10.394531 -20.722656 9.1875 -19.140625 C 7.976562 -17.566406 7.375 -15.679688 7.375 -13.484375 Z M 7.375 -13.484375 "/></g></g></g><g fill="#000000" fill-opacity="1"><g transform="translate(166.144897, 221.34638)"><g><path d="M 8.09375 -16.71875 L 8.09375 0 L 1.953125 0 L 1.953125 -26.9375 L 8.09375 -26.9375 L 18.8125 -10.21875 L 18.875 -10.21875 L 18.875 -26.9375 L 25.015625 -26.9375 L 25.015625 0 L 18.875 0 L 8.15625 -16.71875 Z M 8.09375 -16.71875 "/></g></g></g><g fill="#000000" fill-opacity="1"><g transform="translate(193.442271, 221.34638)"><g><path d="M 11.890625 -27.4375 C 13.347656 -27.4375 14.769531 -27.222656 16.15625 -26.796875 C 17.550781 -26.367188 18.585938 -25.945312 19.265625 -25.53125 L 20.25 -24.890625 L 17.765625 -19.984375 C 17.566406 -20.117188 17.289062 -20.285156 16.9375 -20.484375 C 16.59375 -20.691406 15.941406 -20.96875 14.984375 -21.3125 C 14.023438 -21.664062 13.132812 -21.84375 12.3125 -21.84375 C 11.289062 -21.84375 10.5 -21.625 9.9375 -21.1875 C 9.382812 -20.757812 9.109375 -20.175781 9.109375 -19.4375 C 9.109375 -19.0625 9.238281 -18.710938 9.5 -18.390625 C 9.757812 -18.078125 10.203125 -17.738281 10.828125 -17.375 C 11.460938 -17.019531 12.019531 -16.734375 12.5 -16.515625 C 12.976562 -16.304688 13.722656 -15.984375 14.734375 -15.546875 C 16.472656 -14.804688 17.957031 -13.796875 19.1875 -12.515625 C 20.414062 -11.242188 21.03125 -9.804688 21.03125 -8.203125 C 21.03125 -6.648438 20.75 -5.296875 20.1875 -4.140625 C 19.632812 -2.992188 18.875 -2.09375 17.90625 -1.4375 C 16.9375 -0.78125 15.863281 -0.296875 14.6875 0.015625 C 13.519531 0.328125 12.25 0.484375 10.875 0.484375 C 9.695312 0.484375 8.539062 0.363281 7.40625 0.125 C 6.28125 -0.113281 5.332031 -0.410156 4.5625 -0.765625 C 3.800781 -1.128906 3.113281 -1.484375 2.5 -1.828125 C 1.894531 -2.171875 1.453125 -2.460938 1.171875 -2.703125 L 0.75 -3.0625 L 3.828125 -8.234375 C 4.085938 -8.015625 4.441406 -7.734375 4.890625 -7.390625 C 5.347656 -7.054688 6.160156 -6.601562 7.328125 -6.03125 C 8.492188 -5.46875 9.523438 -5.1875 10.421875 -5.1875 C 13.003906 -5.1875 14.296875 -6.070312 14.296875 -7.84375 C 14.296875 -8.207031 14.203125 -8.546875 14.015625 -8.859375 C 13.835938 -9.179688 13.515625 -9.5 13.046875 -9.8125 C 12.578125 -10.125 12.160156 -10.375 11.796875 -10.5625 C 11.441406 -10.75 10.851562 -11.03125 10.03125 -11.40625 C 9.21875 -11.789062 8.617188 -12.082031 8.234375 -12.28125 C 6.597656 -13.082031 5.332031 -14.085938 4.4375 -15.296875 C 3.550781 -16.503906 3.109375 -17.804688 3.109375 -19.203125 C 3.109375 -21.617188 4 -23.59375 5.78125 -25.125 C 7.5625 -26.664062 9.597656 -27.4375 11.890625 -27.4375 Z M 11.890625 -27.4375 "/></g></g></g><g fill="#000000" fill-opacity="1"><g transform="translate(215.711198, 221.34638)"><g><path d="M 22.65625 -26.9375 L 22.65625 -9.5625 C 22.65625 -6.257812 21.765625 -3.757812 19.984375 -2.0625 C 18.203125 -0.363281 15.585938 0.484375 12.140625 0.484375 C 8.703125 0.484375 6.085938 -0.363281 4.296875 -2.0625 C 2.515625 -3.757812 1.625 -6.257812 1.625 -9.5625 L 1.625 -26.9375 L 7.765625 -26.9375 L 7.765625 -11.359375 C 7.765625 -9.179688 8.109375 -7.664062 8.796875 -6.8125 C 9.484375 -5.96875 10.597656 -5.546875 12.140625 -5.546875 C 13.691406 -5.546875 14.8125 -5.96875 15.5 -6.8125 C 16.1875 -7.664062 16.53125 -9.179688 16.53125 -11.359375 L 16.53125 -26.9375 Z M 22.65625 -26.9375 "/></g></g></g><g fill="#000000" fill-opacity="1"><g transform="translate(240.331081, 221.34638)"><g><path d="M 8.09375 -26.9375 L 8.09375 -5.390625 L 17.375 -5.390625 L 17.375 0 L 1.953125 0 L 1.953125 -26.9375 Z M 8.09375 -26.9375 "/></g></g></g><g fill="#000000" fill-opacity="1"><g transform="translate(259.106207, 221.34638)"><g><path d="M 0.265625 -21.546875 L 0.265625 -26.9375 L 19.203125 -26.9375 L 19.203125 -21.546875 L 12.796875 -21.546875 L 12.796875 0 L 6.65625 0 L 6.65625 -21.546875 Z M 0.265625 -21.546875 "/></g></g></g><g fill="#000000" fill-opacity="1"><g transform="translate(278.893562, 221.34638)"><g><path d="M 8.09375 -26.9375 L 8.09375 0 L 1.953125 0 L 1.953125 -26.9375 Z M 8.09375 -26.9375 "/></g></g></g><g fill="#000000" fill-opacity="1"><g transform="translate(289.277066, 221.34638)"><g><path d="M 8.09375 -16.71875 L 8.09375 0 L 1.953125 0 L 1.953125 -26.9375 L 8.09375 -26.9375 L 18.8125 -10.21875 L 18.875 -10.21875 L 18.875 -26.9375 L 25.015625 -26.9375 L 25.015625 0 L 18.875 0 L 8.15625 -16.71875 Z M 8.09375 -16.71875 "/></g></g></g><g fill="#000000" fill-opacity="1"><g transform="translate(316.574436, 221.34638)"><g><path d="M 26.328125 -15.09375 L 26.328125 -9.234375 C 25.628906 -6.035156 24.101562 -3.613281 21.75 -1.96875 C 19.394531 -0.332031 16.769531 0.484375 13.875 0.484375 C 10.238281 0.484375 7.140625 -0.875 4.578125 -3.59375 C 2.023438 -6.3125 0.75 -9.597656 0.75 -13.453125 C 0.75 -17.367188 2 -20.675781 4.5 -23.375 C 7.007812 -26.082031 10.132812 -27.4375 13.875 -27.4375 C 18.25 -27.4375 21.710938 -25.898438 24.265625 -22.828125 L 20.25 -18.421875 C 18.8125 -20.722656 16.804688 -21.875 14.234375 -21.875 C 12.335938 -21.875 10.71875 -21.050781 9.375 -19.40625 C 8.039062 -17.769531 7.375 -15.785156 7.375 -13.453125 C 7.375 -11.171875 8.039062 -9.21875 9.375 -7.59375 C 10.71875 -5.96875 12.335938 -5.15625 14.234375 -5.15625 C 15.804688 -5.15625 17.171875 -5.628906 18.328125 -6.578125 C 19.492188 -7.523438 20.078125 -8.785156 20.078125 -10.359375 L 13.875 -10.359375 L 13.875 -15.09375 Z M 26.328125 -15.09375 "/></g></g></g></svg>